<svg width="23" height="22" viewBox="0 0 23 22" fill="none" xmlns="http://www.w3.org/2000/svg">
<path d="M4.625 11.7586V7.71266C4.625 5.80499 4.625 4.85216 5.19574 4.25942C5.76648 3.66669 6.68395 3.66669 8.52083 3.66669H8.8549C9.6516 3.66669 10.049 3.66669 10.4074 3.82043C10.7658 3.97418 11.0473 4.26751 11.6102 4.85216L12.2491 5.5157C12.8131 6.10034 13.0936 6.39368 13.452 6.54742C13.8104 6.70117 14.2078 6.70117 15.0045 6.70117H16.3125C18.1494 6.70117 19.0669 6.70117 19.6376 7.29391C20.2083 7.88664 20.2083 8.83947 20.2083 10.7471V13.7816C20.2083 15.6893 20.2083 16.6421 19.6376 17.2349C19.0669 17.8276 18.1494 17.8276 16.3125 17.8276H11.4427M4.625 15.8046H9.49479M9.49479 15.8046L7.0599 13.2759M9.49479 15.8046L7.0599 18.3334" stroke="#648FF2" stroke-width="1.5"/>
</svg>
