<svg width="23" height="22" viewBox="0 0 23 22" fill="none" xmlns="http://www.w3.org/2000/svg">
<path d="M18.7683 18.8575H9.14302C8.98672 18.8575 8.83683 18.7954 8.72631 18.6849C8.6158 18.5744 8.55371 18.4245 8.55371 18.2682V8.64289C8.55371 8.4866 8.6158 8.33671 8.72631 8.22619C8.83683 8.11568 8.98672 8.05359 9.14302 8.05359H18.7683C18.9246 8.05359 19.0745 8.11568 19.185 8.22619C19.2956 8.33671 19.3576 8.4866 19.3576 8.64289V18.2682C19.3576 18.4245 19.2956 18.5744 19.185 18.6849C19.0745 18.7954 18.9246 18.8575 18.7683 18.8575Z" stroke="#648FF2" stroke-width="1.5" stroke-linecap="round" stroke-linejoin="round"/>
<path d="M14.4465 8.05321V3.73164C14.4465 3.57535 14.3844 3.42545 14.2739 3.31494C14.1634 3.20442 14.0135 3.14233 13.8572 3.14233H4.23188C4.07559 3.14233 3.9257 3.20442 3.81518 3.31494C3.70467 3.42545 3.64258 3.57535 3.64258 3.73164V13.357C3.64258 13.5133 3.70467 13.6631 3.81518 13.7737C3.9257 13.8842 4.07559 13.9463 4.23188 13.9463H8.55346" stroke="#648FF2" stroke-width="1.5" stroke-linecap="round" stroke-linejoin="round"/>
</svg>
