<svg width="23" height="22" viewBox="0 0 23 22" fill="none" xmlns="http://www.w3.org/2000/svg">
<path d="M7.92718 10.9987H12.6913M15.6688 6.83012L12.6913 10.9927L15.6688 15.1673M19.8374 5.04239C19.8374 5.67415 19.5865 6.28003 19.1397 6.72675C18.693 7.17347 18.0871 7.42444 17.4554 7.42444C16.8236 7.42444 16.2177 7.17347 15.771 6.72675C15.3243 6.28003 15.0733 5.67415 15.0733 5.04239C15.0733 4.41063 15.3243 3.80475 15.771 3.35803C16.2177 2.9113 16.8236 2.66034 17.4554 2.66034C18.0871 2.66034 18.693 2.9113 19.1397 3.35803C19.5865 3.80475 19.8374 4.41063 19.8374 5.04239ZM19.8374 16.9443C19.8374 17.5761 19.5865 18.1819 19.1397 18.6287C18.693 19.0754 18.0871 19.3263 17.4554 19.3263C16.8236 19.3263 16.2177 19.0754 15.771 18.6287C15.3243 18.1819 15.0733 17.5761 15.0733 16.9443C15.0733 16.3125 15.3243 15.7067 15.771 15.2599C16.2177 14.8132 16.8236 14.5622 17.4554 14.5622C18.0871 14.5622 18.693 14.8132 19.1397 15.2599C19.5865 15.7067 19.8374 16.3125 19.8374 16.9443ZM7.92718 10.9927C7.92718 11.6245 7.67622 12.2304 7.2295 12.6771C6.78278 13.1238 6.17689 13.3748 5.54513 13.3748C4.91338 13.3748 4.30749 13.1238 3.86077 12.6771C3.41405 12.2304 3.16309 11.6245 3.16309 10.9927C3.16309 10.361 3.41405 9.7551 3.86077 9.30838C4.30749 8.86166 4.91338 8.6107 5.54513 8.6107C6.17689 8.6107 6.78278 8.86166 7.2295 9.30838C7.67622 9.7551 7.92718 10.361 7.92718 10.9927Z" stroke="#648FF2" stroke-width="1.5" stroke-linecap="square"/>
</svg>
