<svg width="16" height="16" viewBox="0 0 16 16" fill="none" xmlns="http://www.w3.org/2000/svg">
    <path
        d="M12.6666 15.0007C13.9553 15.0007 15 13.956 15 12.6673C15 11.3787 13.9553 10.334 12.6666 10.334C11.378 10.334 10.3333 11.3787 10.3333 12.6673C10.3333 13.956 11.378 15.0007 12.6666 15.0007Z"
        stroke="#AAB4CB" stroke-width="1.3" stroke-linecap="round" stroke-linejoin="round" />
    <path
        d="M3.33333 5.66667C4.622 5.66667 5.66667 4.622 5.66667 3.33333C5.66667 2.04467 4.622 1 3.33333 1C2.04467 1 1 2.04467 1 3.33333C1 4.622 2.04467 5.66667 3.33333 5.66667Z"
        stroke="#AAB4CB" stroke-width="1.3" stroke-linecap="round" stroke-linejoin="round" />
    <path
        d="M3.33331 14.9993V5.66602C3.33331 7.52253 4.07081 9.30301 5.38357 10.6158C6.69632 11.9285 8.4768 12.666 10.3333 12.666"
        stroke="#AAB4CB" stroke-width="1.3" stroke-linecap="round" stroke-linejoin="round" />
</svg>
