<svg width="16" height="16" viewBox="0 0 16 16" fill="none" xmlns="http://www.w3.org/2000/svg">
    <path
        d="M1.5 14.85C1.3067 14.85 1.15 14.6933 1.15 14.5V11.5C1.15 11.3067 1.3067 11.15 1.5 11.15H6.16667C6.35997 11.15 6.51667 11.3067 6.51667 11.5V14.5C6.51667 14.6933 6.35997 14.85 6.16667 14.85H1.5ZM9.83333 14.85C9.64003 14.85 9.48333 14.6933 9.48333 14.5V8.16667C9.48333 7.97337 9.64003 7.81667 9.83333 7.81667H14.5C14.6933 7.81667 14.85 7.97337 14.85 8.16667V14.5C14.85 14.6933 14.6933 14.85 14.5 14.85H9.83333ZM1.5 8.18333C1.3067 8.18333 1.15 8.02663 1.15 7.83333V1.5C1.15 1.3067 1.3067 1.15 1.5 1.15H6.16667C6.35997 1.15 6.51667 1.3067 6.51667 1.5V7.83333C6.51667 8.02663 6.35997 8.18333 6.16667 8.18333H1.5ZM9.83333 4.85C9.64003 4.85 9.48333 4.6933 9.48333 4.5V1.5C9.48333 1.3067 9.64003 1.15 9.83333 1.15H14.5C14.6933 1.15 14.85 1.3067 14.85 1.5V4.5C14.85 4.6933 14.6933 4.85 14.5 4.85H9.83333Z"
        stroke="#AAB4CB" stroke-width="1.3" />
</svg>
