<svg width="20" height="21" viewBox="0 0 20 21" fill="none" xmlns="http://www.w3.org/2000/svg">
<g opacity="0.8">
<path d="M16.692 13.3967C16.634 13.4548 16.5651 13.5009 16.4892 13.5324C16.4133 13.5638 16.332 13.58 16.2499 13.58C16.1677 13.58 16.0864 13.5638 16.0105 13.5324C15.9346 13.5009 15.8657 13.4548 15.8077 13.3967L9.99986 7.58813L4.19205 13.3967C4.07477 13.514 3.91571 13.5799 3.74986 13.5799C3.58401 13.5799 3.42495 13.514 3.30767 13.3967C3.1904 13.2794 3.12451 13.1204 3.12451 12.9545C3.12451 12.7887 3.1904 12.6296 3.30767 12.5123L9.55767 6.26234C9.61572 6.20423 9.68465 6.15814 9.76052 6.12668C9.8364 6.09523 9.91772 6.07904 9.99986 6.07904C10.082 6.07904 10.1633 6.09523 10.2392 6.12668C10.3151 6.15814 10.384 6.20423 10.442 6.26234L16.692 12.5123C16.7502 12.5704 16.7963 12.6393 16.8277 12.7152C16.8592 12.7911 16.8754 12.8724 16.8754 12.9545C16.8754 13.0367 16.8592 13.118 16.8277 13.1939C16.7963 13.2697 16.7502 13.3387 16.692 13.3967Z" fill="white"/>
</g>
</svg>
