<svg width="20" height="21" viewBox="0 0 20 21" fill="none" xmlns="http://www.w3.org/2000/svg">
<g opacity="0.8">
<path d="M16.692 8.39673L10.442 14.6467C10.384 14.7048 10.3151 14.7509 10.2392 14.7824C10.1633 14.8138 10.082 14.83 9.99986 14.83C9.91772 14.83 9.8364 14.8138 9.76052 14.7824C9.68465 14.7509 9.61572 14.7048 9.55767 14.6467L3.30767 8.39673C3.1904 8.27945 3.12451 8.12039 3.12451 7.95454C3.12451 7.78869 3.1904 7.62963 3.30767 7.51235C3.42495 7.39508 3.58401 7.32919 3.74986 7.32919C3.91571 7.32919 4.07477 7.39508 4.19205 7.51235L9.99986 13.3209L15.8077 7.51235C15.8657 7.45428 15.9347 7.40822 16.0105 7.37679C16.0864 7.34537 16.1677 7.32919 16.2499 7.32919C16.332 7.32919 16.4133 7.34537 16.4892 7.37679C16.565 7.40822 16.634 7.45428 16.692 7.51235C16.7501 7.57042 16.7962 7.63936 16.8276 7.71523C16.859 7.7911 16.8752 7.87242 16.8752 7.95454C16.8752 8.03666 16.859 8.11798 16.8276 8.19385C16.7962 8.26972 16.7501 8.33866 16.692 8.39673Z" fill="white"/>
</g>
</svg>
