<svg width="24" height="24" viewBox="0 0 24 24" fill="none" xmlns="http://www.w3.org/2000/svg">
<path d="M21.04 12.13C20.9 12.13 20.76 12.19 20.65 12.3L19.65 13.3L21.7 15.35L22.7 14.35C22.92 14.14 22.92 13.79 22.7 13.58L21.42 12.3C21.3713 12.2476 21.3126 12.2056 21.2473 12.1764C21.182 12.1472 21.1115 12.1314 21.04 12.13ZM19.07 13.88L13 19.94V22H15.06L21.12 15.93L19.07 13.88ZM19 11.12L11.91 18.2C11.5 17.95 11 17.8 10.5 17.8C9 17.8 7.8 19 7.8 20.5V22H4C3.46957 22 2.96086 21.7893 2.58579 21.4142C2.21071 21.0391 2 20.5304 2 20V16.2H3.5C5 16.2 6.2 15 6.2 13.5C6.2 12 5 10.8 3.5 10.8H2V7C2 5.9 2.9 5 4 5H8V3.5C8 2.83696 8.26339 2.20107 8.73223 1.73223C9.20107 1.26339 9.83696 1 10.5 1C11.163 1 11.7989 1.26339 12.2678 1.73223C12.7366 2.20107 13 2.83696 13 3.5V5H17C17.5304 5 18.0391 5.21071 18.4142 5.58579C18.7893 5.96086 19 6.46957 19 7V11.12Z" fill="#AAB4CB"/>
</svg>
