<svg width="16" height="16" viewBox="0 0 16 16" fill="none" xmlns="http://www.w3.org/2000/svg">
<path d="M14.875 0.954529H4.875C4.70924 0.954529 4.55027 1.02038 4.43306 1.13759C4.31585 1.2548 4.25 1.41377 4.25 1.57953V4.70453H1.125C0.95924 4.70453 0.800269 4.77038 0.683058 4.88759C0.565848 5.0048 0.5 5.16377 0.5 5.32953V15.3295C0.5 15.4953 0.565848 15.6543 0.683058 15.7715C0.800269 15.8887 0.95924 15.9545 1.125 15.9545H11.125C11.2908 15.9545 11.4497 15.8887 11.5669 15.7715C11.6842 15.6543 11.75 15.4953 11.75 15.3295V12.2045H14.875C15.0408 12.2045 15.1997 12.1387 15.3169 12.0215C15.4342 11.9043 15.5 11.7453 15.5 11.5795V1.57953C15.5 1.41377 15.4342 1.2548 15.3169 1.13759C15.1997 1.02038 15.0408 0.954529 14.875 0.954529ZM10.5 14.7045H1.75V5.95453H10.5V14.7045ZM14.25 10.9545H11.75V5.32953C11.75 5.16377 11.6842 5.0048 11.5669 4.88759C11.4497 4.77038 11.2908 4.70453 11.125 4.70453H5.5V2.20453H14.25V10.9545Z" fill="white"/>
</svg>
