<svg width="93" height="93" viewBox="0 0 93 93" fill="none" xmlns="http://www.w3.org/2000/svg">
<path d="M77.0833 34.6875H42.3958C38.1386 34.6875 34.6875 38.1386 34.6875 42.3958V77.0833C34.6875 81.3405 38.1386 84.7917 42.3958 84.7917H77.0833C81.3405 84.7917 84.7917 81.3405 84.7917 77.0833V42.3958C84.7917 38.1386 81.3405 34.6875 77.0833 34.6875Z" stroke="white" stroke-width="6.475" stroke-linecap="round" stroke-linejoin="round"/>
<path d="M19.2712 57.8117H15.4171C13.3727 57.8117 11.4121 56.9996 9.96646 55.554C8.52087 54.1084 7.70874 52.1477 7.70874 50.1033V15.4159C7.70874 13.3715 8.52087 11.4108 9.96646 9.96524C11.4121 8.51964 13.3727 7.70752 15.4171 7.70752H50.1046C52.1489 7.70752 54.1096 8.51964 55.5552 9.96524C57.0008 11.4108 57.8129 13.3715 57.8129 15.4159V19.27" stroke="white" stroke-width="6.475" stroke-linecap="round" stroke-linejoin="round"/>
</svg>
