<svg width="21" height="21" viewBox="0 0 21 21" fill="none" xmlns="http://www.w3.org/2000/svg">
<path d="M2.69522 19.3239L0.562988 17.4785H2.69522V19.3239ZM18.8678 19.3239L21 17.4785H18.8678V19.3239Z" fill="#648FF2"/>
<path d="M18.8691 3.45279H15.4686V0.503906L18.8691 3.45279Z" fill="#648FF2"/>
<path d="M15.4634 0.5H3.37225C3.19278 0.5 3.02066 0.561826 2.89376 0.671877C2.76685 0.781928 2.69556 0.931189 2.69556 1.08682V19.9095C2.69555 20.0655 2.76671 20.2151 2.8935 20.3257C3.02028 20.4364 3.19239 20.499 3.37225 20.5H18.1914C18.2823 20.4995 18.3722 20.4833 18.4557 20.4523C18.5393 20.4212 18.6148 20.376 18.6779 20.3193C18.7409 20.2625 18.7902 20.1954 18.8229 20.1218C18.8556 20.0483 18.871 19.9698 18.8681 19.891V3.45257H15.4634V0.5Z" fill="#EAEAEA"/>
<path d="M0.993221 10.834H20.5706C20.6834 10.834 20.7917 10.8729 20.8715 10.9421C20.9513 11.0113 20.9961 11.1052 20.9961 11.2031V17.4773H0.567627V11.2031C0.567627 11.1052 0.612466 11.0113 0.692281 10.9421C0.772095 10.8729 0.880347 10.834 0.993221 10.834Z" fill="#648FF2"/>
</svg>