<svg width="21" height="21" viewBox="0 0 21 21" fill="none" xmlns="http://www.w3.org/2000/svg">
<g id="teenyicons:share-outline">
<path id="Vector" d="M7.2519 10.9216H11.5829M14.2898 7.13201L11.5829 10.9162L14.2898 14.7113M18.0794 5.50681C18.0794 6.08113 17.8512 6.63194 17.4451 7.03805C17.039 7.44416 16.4882 7.67231 15.9139 7.67231C15.3396 7.67231 14.7888 7.44416 14.3827 7.03805C13.9765 6.63194 13.7484 6.08113 13.7484 5.50681C13.7484 4.93248 13.9765 4.38168 14.3827 3.97557C14.7888 3.56946 15.3396 3.34131 15.9139 3.34131C16.4882 3.34131 17.039 3.56946 17.4451 3.97557C17.8512 4.38168 18.0794 4.93248 18.0794 5.50681ZM18.0794 16.3267C18.0794 16.901 17.8512 17.4519 17.4451 17.858C17.039 18.2641 16.4882 18.4922 15.9139 18.4922C15.3396 18.4922 14.7888 18.2641 14.3827 17.858C13.9765 17.4519 13.7484 16.901 13.7484 16.3267C13.7484 15.7524 13.9765 15.2016 14.3827 14.7955C14.7888 14.3894 15.3396 14.1612 15.9139 14.1612C16.4882 14.1612 17.039 14.3894 17.4451 14.7955C17.8512 15.2016 18.0794 15.7524 18.0794 16.3267ZM7.2519 10.9162C7.2519 11.4905 7.02375 12.0414 6.61764 12.4475C6.21153 12.8536 5.66072 13.0817 5.0864 13.0817C4.51207 13.0817 3.96127 12.8536 3.55516 12.4475C3.14905 12.0414 2.9209 11.4905 2.9209 10.9162C2.9209 10.3419 3.14905 9.79109 3.55516 9.38498C3.96127 8.97887 4.51207 8.75072 5.0864 8.75072C5.66072 8.75072 6.21153 8.97887 6.61764 9.38498C7.02375 9.79109 7.2519 10.3419 7.2519 10.9162Z" stroke="#648FF2" stroke-width="1.5" stroke-linecap="square"/>
</g>
</svg>
