<svg width="21" height="21" viewBox="0 0 21 21" fill="none" xmlns="http://www.w3.org/2000/svg">
<g id="fluent:delete-16-regular">
<path id="Vector" d="M9.47452 5.56571H11.5258C11.5258 5.28155 11.4177 5.00903 11.2254 4.80809C11.0331 4.60716 10.7722 4.49428 10.5002 4.49428C10.2281 4.49428 9.96727 4.60716 9.77493 4.80809C9.58258 5.00903 9.47452 5.28155 9.47452 5.56571ZM8.44888 5.56571C8.44888 4.99739 8.665 4.45234 9.04969 4.05048C9.43438 3.64862 9.95613 3.42285 10.5002 3.42285C11.0442 3.42285 11.5659 3.64862 11.9506 4.05048C12.3353 4.45234 12.5514 4.99739 12.5514 5.56571H16.654C16.79 5.56571 16.9205 5.62215 17.0166 5.72262C17.1128 5.82308 17.1668 5.95934 17.1668 6.10142C17.1668 6.2435 17.1128 6.37976 17.0166 6.48023C16.9205 6.5807 16.79 6.63714 16.654 6.63714H16.0755L14.8397 16.1064C14.7558 16.7481 14.4523 17.3364 13.9852 17.7623C13.5181 18.1882 12.9191 18.4228 12.2991 18.4229H8.70119C8.08121 18.4228 7.48222 18.1882 7.01514 17.7623C6.54805 17.3364 6.2445 16.7481 6.16068 16.1064L4.92478 6.63714H4.34632C4.21031 6.63714 4.07987 6.5807 3.9837 6.48023C3.88753 6.37976 3.8335 6.2435 3.8335 6.10142C3.8335 5.95934 3.88753 5.82308 3.9837 5.72262C4.07987 5.62215 4.21031 5.56571 4.34632 5.56571H8.44888ZM9.47452 9.31571C9.47452 9.17363 9.42049 9.03737 9.32432 8.9369C9.22815 8.83644 9.09771 8.77999 8.9617 8.77999C8.82569 8.77999 8.69526 8.83644 8.59908 8.9369C8.50291 9.03737 8.44888 9.17363 8.44888 9.31571V14.6729C8.44888 14.8149 8.50291 14.9512 8.59908 15.0517C8.69526 15.1521 8.82569 15.2086 8.9617 15.2086C9.09771 15.2086 9.22815 15.1521 9.32432 15.0517C9.42049 14.9512 9.47452 14.8149 9.47452 14.6729V9.31571ZM12.0386 8.77999C12.1746 8.77999 12.3051 8.83644 12.4012 8.9369C12.4974 9.03737 12.5514 9.17363 12.5514 9.31571V14.6729C12.5514 14.8149 12.4974 14.9512 12.4012 15.0517C12.3051 15.1521 12.1746 15.2086 12.0386 15.2086C11.9026 15.2086 11.7722 15.1521 11.676 15.0517C11.5798 14.9512 11.5258 14.8149 11.5258 14.6729V9.31571C11.5258 9.17363 11.5798 9.03737 11.676 8.9369C11.7722 8.83644 11.9026 8.77999 12.0386 8.77999ZM7.17709 15.9618C7.22742 16.3467 7.40954 16.6996 7.68975 16.9551C7.96995 17.2106 8.32927 17.3514 8.70119 17.3514H12.2991C12.6712 17.3516 13.0308 17.2109 13.3112 16.9554C13.5916 16.6999 13.7739 16.3469 13.8243 15.9618L15.0407 6.63714H5.95965L7.17709 15.9618Z" fill="#EE2424"/>
</g>
</svg>
