<svg width="16" height="17" viewBox="0 0 16 17" fill="none" xmlns="http://www.w3.org/2000/svg">
<g id="iconoir:copy">
<g id="Group 11423">
<g id="Group">
<path id="Vector" d="M11.4716 13.0271C11.4716 13.2646 11.3706 13.4924 11.1907 13.6603C11.0109 13.8283 10.767 13.9226 10.5126 13.9226H4.75878C4.50444 13.9226 4.26052 13.8283 4.08068 13.6603C3.90084 13.4924 3.7998 13.2646 3.7998 13.0271V5.86254C3.7998 5.62502 3.7998 4.85596 4.95057 4.85596" stroke="white" stroke-linecap="round" stroke-linejoin="round"/>
<path id="Vector_2" d="M8.07158 8.0645H10.687M8.07158 9.73835H9.37927M5.89209 4.29835V10.9937C5.89209 11.2157 5.98394 11.4286 6.14743 11.5855C6.31093 11.7425 6.53267 11.8307 6.76388 11.8307H11.9947C12.2259 11.8307 12.4476 11.7425 12.6111 11.5855C12.7746 11.4286 12.8665 11.2157 12.8665 10.9937V6.11531C12.8664 6.00381 12.8432 5.89345 12.7982 5.79069C12.7531 5.68793 12.6871 5.59484 12.604 5.51691L10.6687 3.69995C10.5058 3.54707 10.2871 3.46145 10.0593 3.46143H6.76388C6.53267 3.46143 6.31093 3.5496 6.14743 3.70655C5.98394 3.86351 5.89209 4.07638 5.89209 4.29835Z" stroke="white" stroke-linecap="round" stroke-linejoin="round"/>
<path id="Vector_3" d="M10.0762 3.46143V5.32126C10.0762 5.56788 10.1741 5.80441 10.3485 5.9788C10.5229 6.1532 10.7595 6.25117 11.0061 6.25117H12.8659" stroke="white" stroke-linejoin="round"/>
</g>
</g>
</g>
</svg>
