<svg width="16" height="17" viewBox="0 0 16 17" fill="none" xmlns="http://www.w3.org/2000/svg">
<g id="iconoir:copy">
<g id="Group">
<path id="Vector" d="M12.4398 13.7226H6.55971C6.46423 13.7226 6.37266 13.6847 6.30515 13.6172C6.23764 13.5497 6.19971 13.4581 6.19971 13.3626V7.48256C6.19971 7.38708 6.23764 7.29552 6.30515 7.228C6.37266 7.16049 6.46423 7.12256 6.55971 7.12256H12.4398C12.5353 7.12256 12.6268 7.16049 12.6944 7.228C12.7619 7.29552 12.7998 7.38708 12.7998 7.48256V13.3626C12.7998 13.4581 12.7619 13.5497 12.6944 13.6172C12.6268 13.6847 12.5353 13.7226 12.4398 13.7226Z" stroke="white" stroke-linecap="round" stroke-linejoin="round"/>
<path id="Vector_2" d="M9.7998 7.1226V4.48256C9.7998 4.38708 9.76187 4.29552 9.69436 4.228C9.62684 4.16049 9.53527 4.12256 9.43979 4.12256H3.55971C3.46423 4.12256 3.37266 4.16049 3.30515 4.228C3.23764 4.29552 3.19971 4.38708 3.19971 4.48256V10.3626C3.19971 10.4581 3.23764 10.5497 3.30515 10.6172C3.37266 10.6847 3.46423 10.7226 3.55971 10.7226H6.19975" stroke="white" stroke-linecap="round" stroke-linejoin="round"/>
</g>
</g>
</svg>
