<svg width="36" height="36" viewBox="0 0 36 36" fill="none" xmlns="http://www.w3.org/2000/svg">
<path d="M3.75594 33.6107L0 30.3601H3.75594V33.6107ZM32.2441 33.6107L36 30.3601H32.2441V33.6107Z" fill="#648FF2"/>
<path d="M32.2468 5.65713H26.2568V0.462646L32.2468 5.65713Z" fill="#648FF2"/>
<path d="M26.2484 0.454529H4.94982C4.63368 0.454529 4.33049 0.563436 4.10694 0.757291C3.8834 0.951147 3.75781 1.21407 3.75781 1.48822V34.6445C3.75781 34.9193 3.88315 35.1828 4.10648 35.3777C4.32981 35.5726 4.63299 35.683 4.94982 35.6847H31.0539C31.214 35.6839 31.3723 35.6553 31.5195 35.6006C31.6666 35.5459 31.7997 35.4663 31.9108 35.3663C32.0218 35.2663 32.1087 35.1481 32.1663 35.0185C32.2239 34.889 32.2509 34.7508 32.2459 34.612V5.65551H26.2484V0.454529Z" fill="#EAEAEA"/>
<path d="M0.7575 18.6585H35.2431C35.442 18.6585 35.6327 18.727 35.7733 18.849C35.9138 18.9709 35.9928 19.1362 35.9928 19.3087V30.3607H0.0078125V19.3087C0.0078125 19.1362 0.0867974 18.9709 0.227391 18.849C0.367985 18.727 0.558671 18.6585 0.7575 18.6585Z" fill="#648FF2"/>
</svg>
