<svg width="25" height="24" viewBox="0 0 25 24" fill="none" xmlns="http://www.w3.org/2000/svg">
<path fill-rule="evenodd" clip-rule="evenodd" d="M4.57129 18.7427C4.15708 18.7427 3.82129 19.0785 3.82129 19.4927C3.82129 19.9069 4.15708 20.2427 4.57129 20.2427H10.5713C10.9855 20.2427 11.3213 19.9069 11.3213 19.4927C11.3213 19.0785 10.9855 18.7427 10.5713 18.7427H4.57129ZM10.8877 9.24582C11.1618 9.46505 11.3213 9.79697 11.3213 10.1479V13.7701C11.3213 14.1613 11.1341 14.5288 10.8178 14.7588C10.6088 14.9108 10.3571 14.9927 10.0987 14.9927H9.41035C9.14362 14.9927 8.88617 14.8948 8.68682 14.7176C8.45432 14.5109 8.32129 14.2147 8.32129 13.9036V10.1479C8.32129 9.79697 8.48081 9.46505 8.75485 9.24582C8.95969 9.08195 9.2142 8.99267 9.47652 8.99267H10.1661C10.4284 8.99267 10.6829 9.08195 10.8877 9.24582ZM15.3877 16.7458C15.6618 16.9651 15.8213 17.297 15.8213 17.6479V21.3374C15.8213 21.6884 15.6618 22.0203 15.3877 22.2395C15.1829 22.4034 14.9284 22.4927 14.6661 22.4927H13.9765C13.7142 22.4927 13.4597 22.4034 13.2549 22.2395C12.9808 22.0203 12.8213 21.6884 12.8213 21.3374V17.6479C12.8213 17.297 12.9808 16.9651 13.2549 16.7458C13.4597 16.582 13.7142 16.4927 13.9765 16.4927H14.6661C14.9284 16.4927 15.1829 16.582 15.3877 16.7458ZM4.57129 11.2427C4.15708 11.2427 3.82129 11.5785 3.82129 11.9927C3.82129 12.4069 4.15708 12.7427 4.57129 12.7427H6.07129C6.4855 12.7427 6.82129 12.4069 6.82129 11.9927C6.82129 11.5785 6.4855 11.2427 6.07129 11.2427H4.57129ZM13.5713 12.7427C13.1571 12.7427 12.8213 12.4069 12.8213 11.9927C12.8213 11.5785 13.1571 11.2427 13.5713 11.2427L21.0713 11.2427C21.4855 11.2427 21.8213 11.5785 21.8213 11.9927C21.8213 12.4069 21.4855 12.7427 21.0713 12.7427L13.5713 12.7427ZM18.0713 18.7427C17.6571 18.7427 17.3213 19.0785 17.3213 19.4927C17.3213 19.9069 17.6571 20.2427 18.0713 20.2427H21.0713C21.4855 20.2427 21.8213 19.9069 21.8213 19.4927C21.8213 19.0785 21.4855 18.7427 21.0713 18.7427H18.0713ZM16.8877 7.23953C17.1618 7.0203 17.3213 6.68838 17.3213 6.33744V2.66291C17.3213 2.31197 17.1618 1.98005 16.8877 1.76082C16.6829 1.59695 16.4284 1.50768 16.1661 1.50768H15.5515C15.2892 1.50768 15.0347 1.59695 14.8299 1.76082C14.5558 1.98005 14.3963 2.31197 14.3963 2.66291V6.33744C14.3963 6.68838 14.5558 7.0203 14.8299 7.23953C15.0347 7.4034 15.2892 7.49267 15.5515 7.49267H16.1661C16.4284 7.49267 16.6829 7.4034 16.8877 7.23953ZM4.57129 3.74267C4.15708 3.74267 3.82129 4.07846 3.82129 4.49267C3.82129 4.90689 4.15708 5.24267 4.57129 5.24267H12.0713C12.4855 5.24267 12.8213 4.90689 12.8213 4.49267C12.8213 4.07846 12.4855 3.74267 12.0713 3.74267H4.57129ZM19.5713 5.24267C19.1571 5.24267 18.8213 4.90689 18.8213 4.49267C18.8213 4.07846 19.1571 3.74267 19.5713 3.74267H21.0713C21.4855 3.74267 21.8213 4.07846 21.8213 4.49267C21.8213 4.90689 21.4855 5.24267 21.0713 5.24267H19.5713Z" fill="white"/>
</svg>
