<svg width="24" height="24" viewBox="0 0 24 24" fill="none" xmlns="http://www.w3.org/2000/svg">
<path d="M3 18.3005C2.44772 18.3005 2 17.8528 2 17.3005V4C2 3.44772 2.44772 3 3 3H8.87939C9.14266 3 9.39531 3.10382 9.58251 3.28893L11.2086 4.89687C11.3958 5.08197 11.6485 5.18579 11.9118 5.18579H21.3483C21.6501 5.18579 21.8947 5.43045 21.8947 5.73224C21.8947 6.03404 21.6501 6.27869 21.3483 6.27869H15.3903C14.2032 6.27869 13.1908 6.6929 12.353 7.52131C11.5159 8.349 11.0974 9.35009 11.0974 10.5246C11.0974 11.0747 11.1939 11.5956 11.387 12.0874C11.5299 12.4502 11.7153 12.7794 11.9432 13.0751C12.0996 13.2781 12.2027 13.521 12.2027 13.7772V17.1324C12.2027 17.3733 12.1112 17.603 11.9699 17.7981C11.948 17.8283 11.9269 17.8585 11.9065 17.8885C11.7444 18.1228 11.497 18.3005 11.2121 18.3005H3ZM15.3903 22C14.9246 22 14.5318 21.8419 14.2121 21.5257C13.8923 21.2095 13.7324 20.8211 13.7324 20.3607C13.7324 19.9978 13.8374 19.6769 14.0474 19.3978C14.1095 19.3152 14.1764 19.2398 14.2479 19.1715C14.5515 18.8815 14.8376 18.5262 14.8376 18.1063V12.7505C14.8376 12.3306 14.552 11.9758 14.2451 11.6893C14.1746 11.6235 14.1087 11.5511 14.0474 11.4721C13.8374 11.2025 13.7324 10.8867 13.7324 10.5246C13.7324 10.0634 13.8923 9.67468 14.2121 9.35847C14.5318 9.04299 14.9246 8.88525 15.3903 8.88525C15.8567 8.88525 16.2498 9.04299 16.5696 9.35847C16.8886 9.67468 17.0482 10.0634 17.0482 10.5246C17.0482 10.8874 16.9435 11.2036 16.7343 11.4732C16.6725 11.5525 16.606 11.6252 16.5349 11.6913C16.2277 11.9768 15.9429 12.3312 15.9429 12.7506V14.7163C15.9429 15.3973 16.6088 15.8791 17.2556 15.6662L20.1022 14.729C20.5123 14.594 20.7895 14.2109 20.7895 13.7792V12.7501C20.7895 12.3309 20.505 11.9766 20.1982 11.6911C20.1273 11.6251 20.0609 11.5524 19.9992 11.4732C19.7892 11.2036 19.6842 10.8874 19.6842 10.5246C19.6842 10.0634 19.8441 9.67468 20.1639 9.35847C20.4829 9.04299 20.8757 8.88525 21.3421 8.88525C21.8085 8.88525 22.2013 9.04299 22.5203 9.35847C22.8401 9.67468 23 10.0634 23 10.5246C23 10.8874 22.895 11.2036 22.685 11.4732C22.6235 11.5524 22.5574 11.625 22.4866 11.691C22.1797 11.9769 21.8947 12.3312 21.8947 12.7506V14.5579C21.8947 14.9899 21.6173 15.3731 21.2068 15.5079L16.6308 17.0112C16.2203 17.146 15.9429 17.5292 15.9429 17.9612V18.1073C15.9429 18.5267 16.2283 18.8816 16.5322 19.1706C16.6043 19.2391 16.6717 19.3149 16.7343 19.3978C16.9435 19.6769 17.0482 19.9974 17.0482 20.3596C17.0482 20.8208 16.8886 21.2095 16.5696 21.5257C16.2498 21.8419 15.8567 22 15.3903 22Z" fill="#AAB4CB"/>
</svg>
