<svg width="46" height="47" viewBox="0 0 46 47" fill="none" xmlns="http://www.w3.org/2000/svg">
<path d="M43 24.3161C43 22.6381 42.8638 21.4136 42.5691 20.1438H23.4082V27.7174H34.6552C34.4286 29.5996 33.2041 32.434 30.483 34.3387L30.4448 34.5922L36.5031 39.2855L36.9229 39.3274C40.7777 35.7673 43 30.5292 43 24.3161Z" fill="#4285F4"/>
<path d="M23.408 44.2707C28.9182 44.2707 33.5439 42.4566 36.9227 39.3274L30.4828 34.3387C28.7595 35.5405 26.4465 36.3795 23.408 36.3795C18.0113 36.3795 13.4308 32.8195 11.798 27.8989L11.5587 27.9192L5.25914 32.7945L5.17676 33.0235C8.53272 39.6901 15.4261 44.2707 23.408 44.2707Z" fill="#34A853"/>
<path d="M11.7981 27.8989C11.3672 26.6291 11.1179 25.2685 11.1179 23.8626C11.1179 22.4567 11.3672 21.0962 11.7754 19.8263L11.764 19.5559L5.3855 14.6023L5.17681 14.7016C3.79366 17.468 3 20.5747 3 23.8626C3 27.1506 3.79366 30.2571 5.17681 33.0235L11.7981 27.8989Z" fill="#FBBC05"/>
<path d="M23.408 11.3456C27.2402 11.3456 29.8251 13.0009 31.2991 14.3842L37.0587 8.76063C33.5214 5.47267 28.9181 3.45453 23.408 3.45453C15.4261 3.45453 8.53272 8.03498 5.17676 14.7016L11.7754 19.8263C13.4308 14.9057 18.0113 11.3456 23.408 11.3456Z" fill="#EB4335"/>
</svg>
