<svg width="18" height="18" viewBox="0 0 18 18" fill="none" xmlns="http://www.w3.org/2000/svg">
<path fill-rule="evenodd" clip-rule="evenodd" d="M17.3505 1.66707C17.7092 1.66707 18 1.95785 18 2.31655V7.32787C18 7.68657 17.7092 7.97735 17.3505 7.97735H12.3392C11.9805 7.97735 11.6897 7.68657 11.6897 7.32787C11.6897 6.96917 11.9805 6.67839 12.3392 6.67839H16.701V2.31655C16.701 1.95785 16.9918 1.66707 17.3505 1.66707Z" fill="#8F8F8F"/>
<path fill-rule="evenodd" clip-rule="evenodd" d="M9.13091 2.20053C7.65667 1.99142 6.15439 2.26713 4.85047 2.9861C3.54656 3.70506 2.51163 4.82835 1.90166 6.18667C1.29168 7.545 1.13971 9.06478 1.46863 10.517C1.79755 11.9692 2.58955 13.2752 3.72528 14.2381C4.86101 15.2011 6.27893 15.7688 7.76539 15.8557C9.25185 15.9427 10.7263 15.5442 11.9666 14.7202C13.2068 13.8963 14.1457 12.6916 14.6417 11.2876C14.7612 10.9494 15.1323 10.7721 15.4705 10.8916C15.8087 11.0111 15.986 11.3821 15.8665 11.7204C15.2767 13.3899 14.1602 14.8224 12.6854 15.8022C11.2105 16.782 9.45715 17.2559 7.68953 17.1525C5.92191 17.0491 4.23579 16.374 2.88524 15.2289C1.53469 14.0838 0.592882 12.5308 0.201747 10.8039C-0.189389 9.07704 -0.0086648 7.2698 0.716685 5.65455C1.44203 4.0393 2.67271 2.70355 4.22326 1.84859C5.77382 0.993627 7.56024 0.665776 9.31333 0.914439C11.0631 1.16263 12.685 1.97173 13.9357 3.22011L17.7958 6.85506C18.0569 7.10097 18.0693 7.51202 17.8233 7.77316C17.5774 8.0343 17.1664 8.04664 16.9053 7.80073L13.0382 4.15918C13.0334 4.15467 13.0287 4.1501 13.024 4.14545C11.9715 3.09224 10.6052 2.40964 9.13091 2.20053Z" fill="#8F8F8F"/>
<path fill-rule="evenodd" clip-rule="evenodd" d="M7.3299 4.17367C7.6886 4.17367 7.97938 4.46445 7.97938 4.82315V9.43206L10.9606 10.9226C11.2814 11.0831 11.4114 11.4732 11.251 11.794C11.0906 12.1149 10.7005 12.2449 10.3796 12.0845L7.03944 10.4144C6.8194 10.3044 6.68041 10.0795 6.68041 9.83346V4.82315C6.68041 4.46445 6.9712 4.17367 7.3299 4.17367Z" fill="#8F8F8F"/>
</svg>
