<svg width="18" height="18" viewBox="0 0 18 18" fill="none" xmlns="http://www.w3.org/2000/svg">
<path d="M15.6667 7.3325C15.6667 7.11149 15.5789 6.89953 15.4226 6.74325C15.2663 6.58697 15.0544 6.49917 14.8333 6.49917C14.6123 6.49917 14.4004 6.58697 14.2441 6.74325C14.0878 6.89953 14 7.11149 14 7.3325H15.6667ZM4.00001 7.3325C4.00001 7.11149 3.91221 6.89953 3.75593 6.74325C3.59965 6.58697 3.38769 6.49917 3.16667 6.49917C2.94566 6.49917 2.7337 6.58697 2.57742 6.74325C2.42114 6.89953 2.33334 7.11149 2.33334 7.3325H4.00001ZM15.9108 9.58834C16.068 9.74014 16.2785 9.82413 16.497 9.82223C16.7155 9.82033 16.9245 9.73269 17.079 9.57819C17.2335 9.42368 17.3212 9.21467 17.3231 8.99617C17.325 8.77767 17.241 8.56717 17.0892 8.41L15.9108 9.58834ZM9 1.49917L9.58917 0.910004C9.4329 0.753778 9.22097 0.666016 9 0.666016C8.77903 0.666016 8.56711 0.753778 8.41084 0.910004L9 1.49917ZM0.91084 8.41C0.831248 8.48688 0.767763 8.57883 0.724089 8.6805C0.680415 8.78217 0.657426 8.89152 0.656465 9.00217C0.655503 9.11282 0.676588 9.22255 0.718489 9.32497C0.760389 9.42738 0.822267 9.52042 0.900511 9.59867C0.978755 9.67691 1.0718 9.73879 1.17421 9.78069C1.27663 9.82259 1.38636 9.84367 1.49701 9.84271C1.60766 9.84175 1.71701 9.81876 1.81868 9.77509C1.92035 9.73141 2.0123 9.66793 2.08917 9.58834L0.91084 8.41ZM4.83334 17.3325H13.1667V15.6658H4.83334V17.3325ZM15.6667 14.8325V7.3325H14V14.8325H15.6667ZM4.00001 14.8325V7.3325H2.33334V14.8325H4.00001ZM17.0892 8.41L9.58917 0.910004L8.41084 2.08834L15.9108 9.58834L17.0892 8.41ZM8.41084 0.910004L0.91084 8.41L2.08917 9.58834L9.58917 2.08834L8.41084 0.910004ZM13.1667 17.3325C13.8297 17.3325 14.4656 17.0691 14.9344 16.6003C15.4033 16.1314 15.6667 15.4955 15.6667 14.8325H14C14 15.0535 13.9122 15.2655 13.7559 15.4218C13.5996 15.578 13.3877 15.6658 13.1667 15.6658V17.3325ZM4.83334 15.6658C4.61233 15.6658 4.40036 15.578 4.24408 15.4218C4.0878 15.2655 4.00001 15.0535 4.00001 14.8325H2.33334C2.33334 15.4955 2.59673 16.1314 3.06557 16.6003C3.53441 17.0691 4.1703 17.3325 4.83334 17.3325V15.6658Z" fill="#AAB4CB"/>
</svg>
