<svg width="24" height="24" viewBox="0 0 24 24" fill="none" xmlns="http://www.w3.org/2000/svg">
<path fill-rule="evenodd" clip-rule="evenodd" d="M3.17647 14.5882H5.52941C6.17647 14.5882 6.70588 14.0588 6.70588 13.4118V11.0588C6.70588 10.4118 6.17647 9.88236 5.52941 9.88236H3.17647C2.52941 9.88236 2 10.4118 2 11.0588V13.4118C2 14.0588 2.52941 14.5882 3.17647 14.5882ZM3.17647 20.4706H5.52941C6.17647 20.4706 6.70588 19.9412 6.70588 19.2941V16.9412C6.70588 16.2941 6.17647 15.7647 5.52941 15.7647H3.17647C2.52941 15.7647 2 16.2941 2 16.9412V19.2941C2 19.9412 2.52941 20.4706 3.17647 20.4706ZM3.17647 8.70588H5.52941C6.17647 8.70588 6.70588 8.17647 6.70588 7.52941V5.17647C6.70588 4.52941 6.17647 4 5.52941 4H3.17647C2.52941 4 2 4.52941 2 5.17647V7.52941C2 8.17647 2.52941 8.70588 3.17647 8.70588ZM9.05882 14.5882H20.8235C21.4706 14.5882 22 14.0588 22 13.4118V11.0588C22 10.4118 21.4706 9.88236 20.8235 9.88236H9.05882C8.41176 9.88236 7.88235 10.4118 7.88235 11.0588V13.4118C7.88235 14.0588 8.41176 14.5882 9.05882 14.5882ZM9.05882 20.4706H20.8235C21.4706 20.4706 22 19.9412 22 19.2941V16.9412C22 16.2941 21.4706 15.7647 20.8235 15.7647H9.05882C8.41176 15.7647 7.88235 16.2941 7.88235 16.9412V19.2941C7.88235 19.9412 8.41176 20.4706 9.05882 20.4706ZM7.88235 5.17647V7.52941C7.88235 8.17647 8.41176 8.70588 9.05882 8.70588H20.8235C21.4706 8.70588 22 8.17647 22 7.52941V5.17647C22 4.52941 21.4706 4 20.8235 4H9.05882C8.41176 4 7.88235 4.52941 7.88235 5.17647Z" fill="#AAB4CB"/>
</svg>
