<svg width="50" height="56" viewBox="0 0 50 56" fill="none" xmlns="http://www.w3.org/2000/svg">
<path d="M8.52892 13.0491C6.59437 16.1616 5.58703 19.7076 5.58703 23.3203C5.58703 24.0428 5.73584 28.6671 5.73584 28.6671C5.73584 32.1464 4.79718 35.5701 3 38.5937M35.8125 23.3203C35.8011 18.6071 32.6875 13.0491 26.2255 13.0491C19.7634 13.0491 15.9804 18.3512 15.9689 23.0533V25.899C15.9689 32.6686 15.1898 39.1494 11.0002 44.5629M18.4415 53C23.5469 45.8635 26.2827 37.382 26.2827 28.6893V22.9534M30.833 50.3571C32.6875 48.3125 35.8125 38.9375 35.8125 32.6875M44.1973 44.8851C45.8915 39.3604 46.7157 28.6557 46.7157 22.8976C46.7157 11.9373 37.5809 3.03335 26.2827 3H26.2255C22.6311 3 19.094 3.92263 15.9689 5.66784" stroke="white" stroke-width="4.6875" stroke-linecap="round" stroke-linejoin="round"/>
</svg>
