<svg width="24" height="24" viewBox="0 0 24 24" fill="none" xmlns="http://www.w3.org/2000/svg">
<path d="M16.8 5.6001H7.6C6.4 5.6001 4 6.4001 4 8.8001C4 11.2001 6.4 12.0001 7.6 12.0001H16.4C17.6 12.0001 20 12.8001 20 15.2001C20 17.6001 17.6 18.4001 16.4 18.4001H7.2" stroke="#AAB4CB" stroke-width="2" stroke-linecap="round" stroke-linejoin="round"/>
<path d="M18.4 7.2C18.8243 7.2 19.2313 7.03143 19.5314 6.73137C19.8314 6.43131 20 6.02435 20 5.6C20 5.17565 19.8314 4.76869 19.5314 4.46863C19.2313 4.16857 18.8243 4 18.4 4C17.9757 4 17.5687 4.16857 17.2686 4.46863C16.9686 4.76869 16.8 5.17565 16.8 5.6C16.8 6.02435 16.9686 6.43131 17.2686 6.73137C17.5687 7.03143 17.9757 7.2 18.4 7.2ZM5.6 20C6.02435 20 6.43131 19.8314 6.73137 19.5314C7.03143 19.2313 7.2 18.8243 7.2 18.4C7.2 17.9757 7.03143 17.5687 6.73137 17.2686C6.43131 16.9686 6.02435 16.8 5.6 16.8C5.17565 16.8 4.76869 16.9686 4.46863 17.2686C4.16857 17.5687 4 17.9757 4 18.4C4 18.8243 4.16857 19.2313 4.46863 19.5314C4.76869 19.8314 5.17565 20 5.6 20Z" stroke="#AAB4CB" stroke-width="2" stroke-linejoin="round"/>
</svg>
