<svg width="23" height="22" viewBox="0 0 23 22" fill="none" xmlns="http://www.w3.org/2000/svg">
<path d="M10.3721 5.10714H12.6285C12.6285 4.79457 12.5097 4.49479 12.2981 4.27377C12.0865 4.05274 11.7995 3.92857 11.5003 3.92857C11.2011 3.92857 10.9141 4.05274 10.7026 4.27377C10.491 4.49479 10.3721 4.79457 10.3721 5.10714ZM9.24392 5.10714C9.24392 4.48199 9.48164 3.88244 9.9048 3.44039C10.328 2.99834 10.9019 2.75 11.5003 2.75C12.0988 2.75 12.6727 2.99834 13.0958 3.44039C13.519 3.88244 13.7567 4.48199 13.7567 5.10714H18.2696C18.4192 5.10714 18.5626 5.16923 18.6684 5.27974C18.7742 5.39025 18.8337 5.54014 18.8337 5.69643C18.8337 5.85272 18.7742 6.0026 18.6684 6.11312C18.5626 6.22363 18.4192 6.28571 18.2696 6.28571H17.6332L16.2738 16.7019C16.1816 17.4078 15.8476 18.0549 15.3339 18.5234C14.8201 18.9918 14.1612 19.25 13.4792 19.25H9.52145C8.83947 19.25 8.18059 18.9918 7.6668 18.5234C7.153 18.0549 6.81909 17.4078 6.72689 16.7019L5.3674 6.28571H4.73109C4.58149 6.28571 4.438 6.22363 4.33221 6.11312C4.22642 6.0026 4.16699 5.85272 4.16699 5.69643C4.16699 5.54014 4.22642 5.39025 4.33221 5.27974C4.438 5.16923 4.58149 5.10714 4.73109 5.10714H9.24392ZM10.3721 9.23214C10.3721 9.07585 10.3127 8.92597 10.2069 8.81546C10.1011 8.70494 9.95763 8.64286 9.80802 8.64286C9.65841 8.64286 9.51493 8.70494 9.40914 8.81546C9.30335 8.92597 9.24392 9.07585 9.24392 9.23214V15.125C9.24392 15.2813 9.30335 15.4312 9.40914 15.5417C9.51493 15.6522 9.65841 15.7143 9.80802 15.7143C9.95763 15.7143 10.1011 15.6522 10.2069 15.5417C10.3127 15.4312 10.3721 15.2813 10.3721 15.125V9.23214ZM13.1926 8.64286C13.3422 8.64286 13.4857 8.70494 13.5915 8.81546C13.6973 8.92597 13.7567 9.07585 13.7567 9.23214V15.125C13.7567 15.2813 13.6973 15.4312 13.5915 15.5417C13.4857 15.6522 13.3422 15.7143 13.1926 15.7143C13.043 15.7143 12.8995 15.6522 12.7938 15.5417C12.688 15.4312 12.6285 15.2813 12.6285 15.125V9.23214C12.6285 9.07585 12.688 8.92597 12.7938 8.81546C12.8995 8.70494 13.043 8.64286 13.1926 8.64286ZM7.84494 16.5428C7.90031 16.9663 8.10064 17.3544 8.40887 17.6355C8.71709 17.9165 9.11234 18.0714 9.52145 18.0714H13.4792C13.8885 18.0717 14.284 17.9169 14.5925 17.6358C14.9009 17.3548 15.1014 16.9665 15.1568 16.5428L16.4949 6.28571H6.50576L7.84494 16.5428Z" fill="#EE0000"/>
</svg>
