<svg width="60" height="60" viewBox="0 0 60 60" fill="none" xmlns="http://www.w3.org/2000/svg">
<path d="M29.7697 17.5C27.1638 17.547 24.6378 18.4073 22.545 19.9606C20.4522 21.514 18.8972 23.6827 18.0977 26.1633C17.2981 28.6439 17.294 31.3124 18.0858 33.7955C18.8776 36.2786 20.4257 38.4521 22.5137 40.012C22.832 40.2507 23.0424 40.6061 23.0986 40.9999C23.1549 41.3937 23.0524 41.7937 22.8137 42.112C22.575 42.4303 22.2197 42.6407 21.8258 42.6969C21.432 42.7532 21.032 42.6507 20.7137 42.412C18.1954 40.5295 16.3092 37.9256 15.3053 34.946C14.3015 31.9664 14.2276 28.7519 15.0933 25.7293C15.9591 22.7067 17.7237 20.0188 20.1528 18.0225C22.5819 16.0262 25.5606 14.8158 28.6937 14.552L27.5257 13.38C27.2607 13.0957 27.1165 12.7196 27.1234 12.331C27.1302 11.9424 27.2876 11.5716 27.5625 11.2968C27.8373 11.0219 28.2081 10.8645 28.5967 10.8577C28.9853 10.8508 29.3614 10.995 29.6457 11.26L33.8897 15.502C34.1706 15.7833 34.3284 16.1645 34.3284 16.562C34.3284 16.9595 34.1706 17.3408 33.8897 17.622L29.6457 21.868C29.3614 22.133 28.9853 22.2772 28.5967 22.2704C28.2081 22.2635 27.8373 22.1061 27.5625 21.8313C27.2876 21.5564 27.1302 21.1857 27.1234 20.7971C27.1165 20.4084 27.2607 20.0324 27.5257 19.748L29.7697 17.5ZM30.2297 42.496C32.8356 42.449 35.3616 41.5887 37.4544 40.0354C39.5472 38.482 41.1022 36.3134 41.9017 33.8327C42.7013 31.3521 42.7054 28.6836 41.9136 26.2005C41.1218 23.7174 39.5737 21.5439 37.4857 19.984C37.1675 19.7453 36.957 19.39 36.9008 18.9961C36.8445 18.6023 36.947 18.2023 37.1857 17.884C37.4244 17.5657 37.7798 17.3553 38.1736 17.2991C38.5674 17.2428 38.9674 17.3453 39.2857 17.584C41.804 19.4665 43.6903 22.0704 44.6941 25.05C45.6979 28.0297 45.7718 31.2441 44.9061 34.2667C44.0403 37.2893 42.2758 39.9772 39.8467 41.9735C37.4176 43.9698 34.4388 45.1802 31.3057 45.444L32.4737 46.614C32.617 46.7523 32.7314 46.9178 32.8101 47.1007C32.8888 47.2837 32.9303 47.4805 32.9321 47.6797C32.9339 47.8789 32.896 48.0764 32.8207 48.2608C32.7454 48.4451 32.6341 48.6127 32.4933 48.7536C32.3525 48.8945 32.1851 49.0059 32.0008 49.0815C31.8165 49.157 31.619 49.195 31.4198 49.1934C31.2207 49.1917 31.0238 49.1505 30.8408 49.0719C30.6577 48.9934 30.4921 48.8792 30.3537 48.736L26.1097 44.494C25.8288 44.2128 25.671 43.8315 25.671 43.434C25.671 43.0365 25.8288 42.6553 26.1097 42.374L30.3537 38.13C30.491 37.9826 30.6566 37.8644 30.8406 37.7824C31.0246 37.7005 31.2233 37.6564 31.4247 37.6528C31.6261 37.6493 31.8261 37.6863 32.0129 37.7618C32.1997 37.8372 32.3693 37.9495 32.5118 38.0919C32.6542 38.2344 32.7665 38.404 32.842 38.5908C32.9174 38.7776 32.9544 38.9776 32.9509 39.1791C32.9473 39.3805 32.9033 39.5791 32.8213 39.7631C32.7393 39.9471 32.6211 40.1127 32.4737 40.25L30.2297 42.496V42.496Z" fill="#A685FA"/>
<path d="M29.7697 17.5C27.1638 17.547 24.6378 18.4073 22.545 19.9606C20.4522 21.514 18.8972 23.6827 18.0977 26.1633C17.2981 28.6439 17.294 31.3124 18.0858 33.7955C18.8776 36.2786 20.4257 38.4521 22.5137 40.012C22.832 40.2507 23.0424 40.6061 23.0986 40.9999C23.1549 41.3937 23.0524 41.7937 22.8137 42.112C22.575 42.4303 22.2197 42.6407 21.8258 42.6969C21.432 42.7532 21.032 42.6507 20.7137 42.412C18.1954 40.5295 16.3092 37.9256 15.3053 34.946C14.3015 31.9664 14.2276 28.7519 15.0933 25.7293C15.9591 22.7067 17.7237 20.0188 20.1528 18.0225C22.5819 16.0262 25.5606 14.8158 28.6937 14.552L27.5257 13.38C27.2607 13.0957 27.1165 12.7196 27.1234 12.331C27.1302 11.9424 27.2876 11.5716 27.5625 11.2968C27.8373 11.0219 28.2081 10.8645 28.5967 10.8577C28.9853 10.8508 29.3614 10.995 29.6457 11.26L33.8897 15.502C34.1706 15.7833 34.3284 16.1645 34.3284 16.562C34.3284 16.9595 34.1706 17.3408 33.8897 17.622L29.6457 21.868C29.3614 22.133 28.9853 22.2772 28.5967 22.2704C28.2081 22.2635 27.8373 22.1061 27.5625 21.8313C27.2876 21.5564 27.1302 21.1857 27.1234 20.7971C27.1165 20.4084 27.2607 20.0324 27.5257 19.748L29.7697 17.5ZM30.2297 42.496C32.8356 42.449 35.3616 41.5887 37.4544 40.0354C39.5472 38.482 41.1022 36.3134 41.9017 33.8327C42.7013 31.3521 42.7054 28.6836 41.9136 26.2005C41.1218 23.7174 39.5737 21.5439 37.4857 19.984C37.1675 19.7453 36.957 19.39 36.9008 18.9961C36.8445 18.6023 36.947 18.2023 37.1857 17.884C37.4244 17.5657 37.7798 17.3553 38.1736 17.2991C38.5674 17.2428 38.9674 17.3453 39.2857 17.584C41.804 19.4665 43.6903 22.0704 44.6941 25.05C45.6979 28.0297 45.7718 31.2441 44.9061 34.2667C44.0403 37.2893 42.2758 39.9772 39.8467 41.9735C37.4176 43.9698 34.4388 45.1802 31.3057 45.444L32.4737 46.614C32.617 46.7523 32.7314 46.9178 32.8101 47.1007C32.8888 47.2837 32.9303 47.4805 32.9321 47.6797C32.9339 47.8789 32.896 48.0764 32.8207 48.2608C32.7454 48.4451 32.6341 48.6127 32.4933 48.7536C32.3525 48.8945 32.1851 49.0059 32.0008 49.0815C31.8165 49.157 31.619 49.195 31.4198 49.1934C31.2207 49.1917 31.0238 49.1505 30.8408 49.0719C30.6577 48.9934 30.4921 48.8792 30.3537 48.736L26.1097 44.494C25.8288 44.2128 25.671 43.8315 25.671 43.434C25.671 43.0365 25.8288 42.6553 26.1097 42.374L30.3537 38.13C30.491 37.9826 30.6566 37.8644 30.8406 37.7824C31.0246 37.7005 31.2233 37.6564 31.4247 37.6528C31.6261 37.6493 31.8261 37.6863 32.0129 37.7618C32.1997 37.8372 32.3693 37.9495 32.5118 38.0919C32.6542 38.2344 32.7665 38.404 32.842 38.5908C32.9174 38.7776 32.9544 38.9776 32.9509 39.1791C32.9473 39.3805 32.9033 39.5791 32.8213 39.7631C32.7393 39.9471 32.6211 40.1127 32.4737 40.25L30.2297 42.496V42.496Z" fill="url(#paint0_linear_745_18544)"/>
<circle cx="30" cy="30" r="29.5" stroke="#A685FA"/>
<circle cx="30" cy="30" r="29.5" stroke="url(#paint1_linear_745_18544)"/>
<defs>
<linearGradient id="paint0_linear_745_18544" x1="14.9157" y1="12.0443" x2="51.2638" y2="20.3156" gradientUnits="userSpaceOnUse">
<stop offset="0.119792" stop-color="#648FF2"/>
<stop offset="1" stop-color="#31468F"/>
</linearGradient>
<linearGradient id="paint1_linear_745_18544" x1="0.815583" y1="1.85764" x2="69.359" y2="21.1393" gradientUnits="userSpaceOnUse">
<stop offset="0.119792" stop-color="#648FF2"/>
<stop offset="1" stop-color="#31468F"/>
</linearGradient>
</defs>
</svg>
