<svg width="24" height="24" viewBox="0 0 24 24" fill="none" xmlns="http://www.w3.org/2000/svg">
<path d="M12 14.7C13.4912 14.7 14.7 13.4912 14.7 12C14.7 10.5088 13.4912 9.3 12 9.3C10.5088 9.3 9.3 10.5088 9.3 12C9.3 13.4912 10.5088 14.7 12 14.7Z" stroke="#AAB4CB" stroke-width="1.4"/>
<path d="M13.6848 3.1368C13.3345 3 12.8897 3 12 3C11.1103 3 10.6655 3 10.3152 3.1368C10.0834 3.22726 9.87276 3.35991 9.69537 3.52715C9.51798 3.6944 9.37729 3.89296 9.28134 4.1115C9.19352 4.3122 9.1582 4.5471 9.14484 4.8882C9.13889 5.13479 9.06656 5.37591 8.93465 5.58891C8.80274 5.80192 8.61557 5.97981 8.39072 6.1059C8.16247 6.22654 7.90545 6.29049 7.64379 6.29175C7.38213 6.29301 7.12442 6.23153 6.89488 6.1131C6.57414 5.9529 6.34218 5.8647 6.11212 5.8359C5.61032 5.77368 5.10284 5.90188 4.70125 6.1923C4.40151 6.411 4.17813 6.7737 3.7333 7.5C3.28846 8.2263 3.06509 8.589 3.0164 8.9445C2.9836 9.17891 3.0001 9.41711 3.06496 9.64551C3.12982 9.8739 3.24177 10.088 3.39442 10.2756C3.5357 10.4484 3.7333 10.5933 4.03972 10.7751C4.49124 11.0424 4.78143 11.4978 4.78143 12C4.78143 12.5022 4.49124 12.9576 4.03972 13.224C3.7333 13.4067 3.53474 13.5516 3.39442 13.7244C3.24177 13.912 3.12982 14.1261 3.06496 14.3545C3.0001 14.5829 2.9836 14.8211 3.0164 15.0555C3.06604 15.4101 3.28846 15.7737 3.73234 16.5C4.17813 17.2263 4.40055 17.589 4.70125 17.8077C4.90022 17.9516 5.12731 18.0572 5.36956 18.1183C5.6118 18.1795 5.86445 18.195 6.11308 18.1641C6.34218 18.1353 6.57414 18.0471 6.89488 17.8869C7.12442 17.7685 7.38213 17.707 7.64379 17.7082C7.90545 17.7095 8.16247 17.7735 8.39072 17.8941C8.85178 18.1461 9.12575 18.6096 9.14484 19.1118C9.1582 19.4538 9.19257 19.6878 9.28134 19.8885C9.37729 20.107 9.51798 20.3056 9.69537 20.4728C9.87276 20.6401 10.0834 20.7727 10.3152 20.8632C10.6655 21 11.1103 21 12 21C12.8897 21 13.3345 21 13.6848 20.8632C13.9166 20.7727 14.1272 20.6401 14.3046 20.4728C14.482 20.3056 14.6227 20.107 14.7187 19.8885C14.8065 19.6878 14.8418 19.4538 14.8552 19.1118C14.8743 18.6096 15.1482 18.1452 15.6093 17.8941C15.8375 17.7735 16.0946 17.7095 16.3562 17.7082C16.6179 17.707 16.8756 17.7685 17.1051 17.8869C17.4259 18.0471 17.6578 18.1353 17.8869 18.1641C18.1355 18.195 18.3882 18.1795 18.6304 18.1183C18.8727 18.0572 19.0998 17.9516 19.2988 17.8077C19.5994 17.5899 19.8219 17.2263 20.2667 16.5C20.7115 15.7737 20.9349 15.411 20.9836 15.0555C21.0164 14.8211 20.9999 14.5829 20.935 14.3545C20.8702 14.1261 20.7582 13.912 20.6056 13.7244C20.4643 13.5516 20.2667 13.4067 19.9603 13.2249C19.7367 13.0967 19.5513 12.9171 19.4215 12.7028C19.2918 12.4886 19.2219 12.2467 19.2186 12C19.2186 11.4978 19.5088 11.0424 19.9603 10.776C20.2667 10.5933 20.4653 10.4484 20.6056 10.2756C20.7582 10.088 20.8702 9.8739 20.935 9.64551C20.9999 9.41711 21.0164 9.17891 20.9836 8.9445C20.934 8.5899 20.7115 8.2263 20.2677 7.5C19.8219 6.7737 19.5994 6.411 19.2988 6.1923C19.0998 6.04838 18.8727 5.94283 18.6304 5.88168C18.3882 5.82053 18.1355 5.80497 17.8869 5.8359C17.6578 5.8647 17.4259 5.9529 17.1042 6.1131C16.8747 6.23137 16.6172 6.29276 16.3557 6.2915C16.0943 6.29024 15.8374 6.22638 15.6093 6.1059C15.3844 5.97981 15.1973 5.80192 15.0654 5.58891C14.9334 5.37591 14.8611 5.13479 14.8552 4.8882C14.8418 4.5462 14.8074 4.3122 14.7187 4.1115C14.6227 3.89296 14.482 3.6944 14.3046 3.52715C14.1272 3.35991 13.9166 3.22726 13.6848 3.1368Z" stroke="#AAB4CB" stroke-width="1.4"/>
</svg>
