<svg width="24" height="24" viewBox="0 0 24 24" fill="none" xmlns="http://www.w3.org/2000/svg">
<path d="M10.4455 8C9.3987 8.79324 8.40837 9.65829 7.48161 10.5889C3.11416 14.9559 0.902784 19.822 2.53981 21.4604C4.17684 23.0973 9.04493 20.8846 13.4109 16.5191C14.3416 15.5919 15.2067 14.6012 16 13.554" stroke="#AAB4CB" stroke-linecap="round" stroke-linejoin="round"/>
<path d="M16.0886 13.5002C18.6804 16.9403 19.7361 20.1765 18.4563 21.4561C16.8072 23.1051 11.9094 20.8781 7.51382 16.4844C3.12136 12.0876 0.89576 7.19166 2.54332 5.54267C3.82304 4.26459 7.05943 5.32013 10.4998 7.91029" stroke="#AAB4CB" stroke-linecap="round" stroke-linejoin="round"/>
<path d="M10 13.2432C10 13.4439 10.0795 13.6364 10.2209 13.7783C10.3624 13.9203 10.5542 14 10.7542 14C10.9543 14 11.1461 13.9203 11.2876 13.7783C11.429 13.6364 11.5085 13.4439 11.5085 13.2432C11.5085 13.0424 11.429 12.8499 11.2876 12.708C11.1461 12.566 10.9543 12.4863 10.7542 12.4863C10.5542 12.4863 10.3624 12.566 10.2209 12.708C10.0795 12.8499 10 13.0424 10 13.2432ZM13.7863 6.65253C13.3111 6.56928 13.3111 5.8866 13.7863 5.80486C14.6255 5.65837 15.4023 5.26441 16.0175 4.6732C16.6327 4.082 17.0586 3.32034 17.2407 2.48533L17.2679 2.35364C17.3705 1.8844 18.0372 1.88137 18.1428 2.3491L18.179 2.50198C18.368 3.3333 18.7976 4.09003 19.4138 4.67713C20.03 5.26424 20.8054 5.65552 21.6425 5.80184C22.1192 5.88509 22.1192 6.57231 21.6425 6.65405C20.8054 6.80036 20.03 7.19165 19.4138 7.77875C18.7976 8.36585 18.368 9.12259 18.179 9.9539L18.1428 10.1068C18.0372 10.576 17.3705 10.573 17.2679 10.1038L17.2377 9.97206C17.0556 9.13705 16.6297 8.3754 16.0145 7.78419C15.3993 7.19299 14.6225 6.79903 13.7833 6.65253H13.7863Z" fill="#AAB4CB" stroke="#AAB4CB" stroke-linecap="round" stroke-linejoin="round"/>
</svg>
