<svg width="20" height="20" viewBox="0 0 20 20" fill="none" xmlns="http://www.w3.org/2000/svg">
<path d="M8.70464 6.66602C7.83233 7.32705 7.00705 8.04793 6.23476 8.82343C2.59521 12.4626 0.752401 16.5177 2.11659 17.883C3.48078 19.2471 7.53752 17.4032 11.1758 13.7653C11.9514 12.9926 12.6724 12.167 13.3334 11.2943" stroke="#AAB4CB" stroke-width="1.4" stroke-linecap="round" stroke-linejoin="round"/>
<path d="M13.4072 11.2495C15.5671 14.1163 16.4468 16.8131 15.3804 17.8794C14.0061 19.2536 9.92456 17.3978 6.2616 13.7364C2.60121 10.0724 0.746548 5.9924 2.11952 4.61824C3.18595 3.55317 5.88294 4.43279 8.74994 6.59126" stroke="#AAB4CB" stroke-width="1.4" stroke-linecap="round" stroke-linejoin="round"/>
<path d="M8.33344 11.0353C8.33344 11.2026 8.39966 11.363 8.51753 11.4813C8.6354 11.5996 8.79527 11.666 8.96197 11.666C9.12867 11.666 9.28854 11.5996 9.40641 11.4813C9.52429 11.363 9.59051 11.2026 9.59051 11.0353C9.59051 10.868 9.52429 10.7076 9.40641 10.5893C9.28854 10.4711 9.12867 10.4046 8.96197 10.4046C8.79527 10.4046 8.6354 10.4711 8.51753 10.5893C8.39966 10.7076 8.33344 10.868 8.33344 11.0353ZM11.4887 5.54313C11.0927 5.47375 11.0927 4.90485 11.4887 4.83674C12.188 4.71466 12.8353 4.38635 13.348 3.89369C13.8607 3.40102 14.2156 2.7663 14.3674 2.07046L14.39 1.96072C14.4755 1.56968 15.0311 1.56716 15.1191 1.95693L15.1493 2.08434C15.3068 2.77709 15.6647 3.40771 16.1782 3.89696C16.6918 4.38621 17.3379 4.71228 18.0355 4.83421C18.4327 4.90359 18.4327 5.47627 18.0355 5.54439C17.3379 5.66632 16.6918 5.99239 16.1782 6.48164C15.6647 6.97089 15.3068 7.6015 15.1493 8.29426L15.1191 8.42167C15.0311 8.8127 14.4755 8.81018 14.39 8.41914L14.3649 8.3094C14.2131 7.61356 13.8582 6.97885 13.3455 6.48618C12.8328 5.99351 12.1855 5.6652 11.4862 5.54313H11.4887Z" fill="#AAB4CB" stroke="#AAB4CB" stroke-width="1.4" stroke-linecap="round" stroke-linejoin="round"/>
</svg>
