<svg width="240" height="240" viewBox="0 0 240 240" fill="none" xmlns="http://www.w3.org/2000/svg">
<path d="M93.2797 96.7579C95.5297 97.3479 97.5797 97.8979 99.8397 98.4879C102.71 95.3979 105.49 92.3379 108.34 89.3479C111.18 86.3879 111.98 86.1879 115.71 88.0679C118.66 89.5579 121.57 91.1879 124.32 93.0279C127.36 95.0579 127.71 96.3179 126.65 99.8079C125.45 103.758 124.11 107.658 122.73 111.868C124.42 113.258 126.06 114.618 128.26 116.438C131.28 115.488 135.03 114.298 138.78 113.118C143.4 111.668 144.39 111.928 147.01 116.018C148.71 118.668 150.24 121.428 151.63 124.248C153.18 127.398 152.97 128.318 150.41 130.808C147.8 133.358 145.06 135.778 142.4 138.278C141.93 138.718 141.55 139.268 141.03 139.878C141.58 141.938 142.13 143.978 142.73 146.198C146.41 146.998 149.95 147.758 153.49 148.548C158.7 149.698 159.55 150.638 159.76 155.818C159.86 158.468 159.87 161.128 159.78 163.778C159.65 167.958 158.47 169.418 154.45 170.348C150.59 171.238 146.71 172.008 142.74 172.848C142.11 175.078 141.53 177.118 140.9 179.368C143.98 182.218 147.03 184.998 150.03 187.848C153.06 190.738 153.26 191.598 151.44 195.198C150.02 198.008 148.49 200.778 146.78 203.408C144.55 206.828 143.2 207.258 139.22 206.078C135.42 204.948 131.68 203.658 127.79 202.398C126.2 204.188 124.69 205.898 122.97 207.838C124.1 211.318 125.39 215.068 126.52 218.858C127.69 222.818 127.22 224.138 123.76 226.368C121.26 227.978 118.66 229.468 116 230.818C111.86 232.908 111.2 232.718 107.89 229.188C105.28 226.408 102.69 223.598 99.8497 220.548C97.7597 221.108 95.5897 221.688 93.2397 222.318C92.4497 226.028 91.6897 229.568 90.9297 233.118C89.8197 238.258 88.7297 239.218 83.6297 239.348C80.9797 239.418 78.3197 239.418 75.6697 239.318C71.3597 239.158 70.1397 238.168 69.1697 233.988C68.2797 230.138 67.5097 226.258 66.6697 222.328C64.3697 221.678 62.3297 221.108 60.1197 220.488C57.2497 223.578 54.4697 226.648 51.6197 229.638C48.7497 232.648 47.8897 232.848 44.2697 231.008C41.4697 229.578 38.7097 228.028 36.0797 226.318C32.6497 224.088 32.2397 222.778 33.4397 218.758C34.5697 214.968 35.8597 211.218 37.1297 207.258C35.4497 205.798 33.8397 204.398 31.7497 202.568C28.6197 203.558 24.8797 204.788 21.1097 205.928C16.5597 207.298 15.4497 206.928 12.8597 202.898C11.3397 200.538 9.9497 198.068 8.6697 195.568C6.6197 191.548 6.7597 190.828 9.9497 187.798C12.8297 185.058 15.7797 182.378 18.9597 179.428C18.3897 177.338 17.8097 175.158 17.1797 172.858C13.2997 172.018 9.5897 171.238 5.8797 170.408C1.3997 169.408 0.329698 168.178 0.179698 163.688C0.0896977 160.868 0.0796977 158.048 0.179698 155.228C0.339698 150.948 1.3197 149.738 5.5297 148.738C9.3797 147.828 13.2597 147.068 17.1797 146.228C17.8197 143.918 18.3897 141.878 18.9897 139.688C15.8797 136.798 12.8297 134.008 9.8397 131.148C6.8397 128.278 6.6697 127.498 8.4997 123.798C9.7497 121.278 11.1197 118.808 12.6097 116.418C15.4097 111.928 16.3097 111.668 21.6497 113.328C24.9697 114.358 28.2797 115.428 31.5997 116.458C31.7397 116.498 31.9297 116.418 32.9097 116.288C33.7797 115.078 35.0497 113.328 36.7997 110.908C35.9297 108.158 34.7097 104.418 33.5597 100.648C32.1497 96.0079 32.4997 94.8979 36.5097 92.3779C39.0297 90.7879 41.6597 89.3479 44.3197 88.0179C47.9097 86.2179 48.7597 86.4179 51.6597 89.4679C54.5097 92.4579 57.2997 95.5079 60.1397 98.5579C62.3997 97.9179 64.4397 97.3479 66.6197 96.7279C67.4497 92.8879 68.1997 89.1579 69.0497 85.4679C70.1397 80.7779 71.3397 79.8079 76.2597 79.6779C79.0797 79.6079 81.8997 79.6279 84.7197 79.7679C88.4697 79.9579 89.6597 80.9079 90.5897 84.5879C91.5597 88.4379 92.3197 92.3379 93.2997 96.7679L93.2797 96.7579ZM19.4897 197.348C23.5997 196.018 27.2297 194.888 30.8397 193.678C33.6797 192.718 35.9497 193.278 37.9397 195.628C39.6497 197.648 41.5297 199.568 43.5597 201.258C46.2397 203.498 46.7797 205.968 45.5697 209.208C44.2697 212.718 43.3197 216.358 42.1697 220.118C43.8197 220.938 45.1097 221.578 46.6097 222.328C49.3997 219.248 52.1097 216.338 54.6997 213.338C56.4197 211.348 58.4097 210.738 60.9197 211.498C63.9297 212.408 66.9197 213.448 69.9997 214.018C72.9197 214.568 74.3097 216.278 74.8997 218.908C75.6897 222.468 76.3797 226.038 77.1597 229.598C77.2597 230.038 77.6497 230.418 78.0297 231.028C79.4297 230.938 80.8597 230.848 82.4597 230.748C83.3297 226.638 84.1297 222.768 84.9897 218.908C85.5697 216.258 86.9497 214.508 89.8897 214.028C92.4897 213.608 95.1397 212.998 97.5497 211.978C101.02 210.508 103.51 211.258 105.84 214.118C108.21 217.028 110.89 219.698 113.51 222.548C115.2 221.458 116.41 220.668 117.74 219.818C116.49 215.978 115.32 212.368 114.13 208.768C113.21 205.988 113.56 203.648 115.96 201.628C117.98 199.928 119.95 198.078 121.59 196.008C123.95 193.038 126.65 192.748 129.99 193.958C133.36 195.188 136.83 196.168 140.37 197.288C141.27 195.708 141.99 194.448 142.87 192.908C139.82 190.138 136.92 187.428 133.94 184.818C131.83 182.968 131.14 180.878 132.05 178.158C132.94 175.498 133.86 172.798 134.32 170.038C134.91 166.538 136.8 164.938 140.21 164.388C143.92 163.788 147.57 162.798 151.22 161.978V156.998C147.35 156.178 143.66 155.348 139.95 154.618C136.89 154.018 134.87 152.608 134.38 149.218C134 146.618 133.31 143.988 132.31 141.558C130.95 138.248 131.74 135.898 134.42 133.698C137.33 131.308 140.03 128.648 142.9 126.028C141.92 124.378 141.17 123.148 140.35 121.758C136.68 122.908 133.16 123.828 129.79 125.118C126.59 126.338 124.08 125.938 121.82 123.248C120.12 121.228 118.21 119.338 116.2 117.618C113.73 115.498 113.1 113.178 114.23 110.098C115.53 106.558 116.55 102.918 117.79 99.0079C116.18 98.1879 114.79 97.4779 113.24 96.6779C110.58 99.6579 108.1 102.318 105.76 105.108C103.72 107.548 101.46 108.478 98.3097 107.298C95.8397 106.368 93.2597 105.558 90.6597 105.188C86.8597 104.648 85.3497 102.438 84.7597 98.9279C84.1697 95.3679 83.2297 91.8779 82.3797 88.0279C80.5497 88.1179 78.9897 88.1879 77.4497 88.2679C76.5797 92.2579 75.6997 95.7979 75.0797 99.3779C74.5397 102.498 73.1797 104.498 69.8197 105.048C67.2197 105.478 64.5997 106.128 62.1597 107.108C58.8697 108.438 56.4597 107.698 54.2497 105.068C51.8197 102.168 49.1897 99.4479 46.4797 96.4679C44.8097 97.5679 43.4997 98.4379 42.1897 99.2879C43.4497 103.138 44.5397 106.618 45.7397 110.048C46.7797 113.038 46.3197 115.478 43.7697 117.598C41.8597 119.178 40.0197 120.918 38.4897 122.858C36.0197 125.978 33.2097 126.358 29.6797 124.978C26.4697 123.728 23.1197 122.838 19.5197 121.688C18.6797 123.228 17.9197 124.598 17.0897 126.118C20.1897 128.928 22.9597 131.548 25.8497 134.028C28.1297 135.988 28.9297 138.118 27.8297 141.068C26.8497 143.698 26.0097 146.428 25.5797 149.188C25.0497 152.558 23.0797 153.978 19.9997 154.568C16.2897 155.288 12.6097 156.168 8.8197 156.998V162.038C12.8197 162.878 16.5297 163.658 20.2397 164.428C23.0697 165.018 24.9997 166.348 25.5197 169.518C25.9697 172.278 26.7497 175.028 27.7197 177.658C28.8797 180.758 28.1997 183.048 25.6897 185.128C22.7697 187.548 20.0297 190.188 17.1097 192.828C17.9597 194.398 18.6497 195.678 19.5397 197.318L19.4897 197.348Z" fill="#A685FA"/>
<path d="M93.2797 96.7579C95.5297 97.3479 97.5797 97.8979 99.8397 98.4879C102.71 95.3979 105.49 92.3379 108.34 89.3479C111.18 86.3879 111.98 86.1879 115.71 88.0679C118.66 89.5579 121.57 91.1879 124.32 93.0279C127.36 95.0579 127.71 96.3179 126.65 99.8079C125.45 103.758 124.11 107.658 122.73 111.868C124.42 113.258 126.06 114.618 128.26 116.438C131.28 115.488 135.03 114.298 138.78 113.118C143.4 111.668 144.39 111.928 147.01 116.018C148.71 118.668 150.24 121.428 151.63 124.248C153.18 127.398 152.97 128.318 150.41 130.808C147.8 133.358 145.06 135.778 142.4 138.278C141.93 138.718 141.55 139.268 141.03 139.878C141.58 141.938 142.13 143.978 142.73 146.198C146.41 146.998 149.95 147.758 153.49 148.548C158.7 149.698 159.55 150.638 159.76 155.818C159.86 158.468 159.87 161.128 159.78 163.778C159.65 167.958 158.47 169.418 154.45 170.348C150.59 171.238 146.71 172.008 142.74 172.848C142.11 175.078 141.53 177.118 140.9 179.368C143.98 182.218 147.03 184.998 150.03 187.848C153.06 190.738 153.26 191.598 151.44 195.198C150.02 198.008 148.49 200.778 146.78 203.408C144.55 206.828 143.2 207.258 139.22 206.078C135.42 204.948 131.68 203.658 127.79 202.398C126.2 204.188 124.69 205.898 122.97 207.838C124.1 211.318 125.39 215.068 126.52 218.858C127.69 222.818 127.22 224.138 123.76 226.368C121.26 227.978 118.66 229.468 116 230.818C111.86 232.908 111.2 232.718 107.89 229.188C105.28 226.408 102.69 223.598 99.8497 220.548C97.7597 221.108 95.5897 221.688 93.2397 222.318C92.4497 226.028 91.6897 229.568 90.9297 233.118C89.8197 238.258 88.7297 239.218 83.6297 239.348C80.9797 239.418 78.3197 239.418 75.6697 239.318C71.3597 239.158 70.1397 238.168 69.1697 233.988C68.2797 230.138 67.5097 226.258 66.6697 222.328C64.3697 221.678 62.3297 221.108 60.1197 220.488C57.2497 223.578 54.4697 226.648 51.6197 229.638C48.7497 232.648 47.8897 232.848 44.2697 231.008C41.4697 229.578 38.7097 228.028 36.0797 226.318C32.6497 224.088 32.2397 222.778 33.4397 218.758C34.5697 214.968 35.8597 211.218 37.1297 207.258C35.4497 205.798 33.8397 204.398 31.7497 202.568C28.6197 203.558 24.8797 204.788 21.1097 205.928C16.5597 207.298 15.4497 206.928 12.8597 202.898C11.3397 200.538 9.9497 198.068 8.6697 195.568C6.6197 191.548 6.7597 190.828 9.9497 187.798C12.8297 185.058 15.7797 182.378 18.9597 179.428C18.3897 177.338 17.8097 175.158 17.1797 172.858C13.2997 172.018 9.5897 171.238 5.8797 170.408C1.3997 169.408 0.329698 168.178 0.179698 163.688C0.0896977 160.868 0.0796977 158.048 0.179698 155.228C0.339698 150.948 1.3197 149.738 5.5297 148.738C9.3797 147.828 13.2597 147.068 17.1797 146.228C17.8197 143.918 18.3897 141.878 18.9897 139.688C15.8797 136.798 12.8297 134.008 9.8397 131.148C6.8397 128.278 6.6697 127.498 8.4997 123.798C9.7497 121.278 11.1197 118.808 12.6097 116.418C15.4097 111.928 16.3097 111.668 21.6497 113.328C24.9697 114.358 28.2797 115.428 31.5997 116.458C31.7397 116.498 31.9297 116.418 32.9097 116.288C33.7797 115.078 35.0497 113.328 36.7997 110.908C35.9297 108.158 34.7097 104.418 33.5597 100.648C32.1497 96.0079 32.4997 94.8979 36.5097 92.3779C39.0297 90.7879 41.6597 89.3479 44.3197 88.0179C47.9097 86.2179 48.7597 86.4179 51.6597 89.4679C54.5097 92.4579 57.2997 95.5079 60.1397 98.5579C62.3997 97.9179 64.4397 97.3479 66.6197 96.7279C67.4497 92.8879 68.1997 89.1579 69.0497 85.4679C70.1397 80.7779 71.3397 79.8079 76.2597 79.6779C79.0797 79.6079 81.8997 79.6279 84.7197 79.7679C88.4697 79.9579 89.6597 80.9079 90.5897 84.5879C91.5597 88.4379 92.3197 92.3379 93.2997 96.7679L93.2797 96.7579ZM19.4897 197.348C23.5997 196.018 27.2297 194.888 30.8397 193.678C33.6797 192.718 35.9497 193.278 37.9397 195.628C39.6497 197.648 41.5297 199.568 43.5597 201.258C46.2397 203.498 46.7797 205.968 45.5697 209.208C44.2697 212.718 43.3197 216.358 42.1697 220.118C43.8197 220.938 45.1097 221.578 46.6097 222.328C49.3997 219.248 52.1097 216.338 54.6997 213.338C56.4197 211.348 58.4097 210.738 60.9197 211.498C63.9297 212.408 66.9197 213.448 69.9997 214.018C72.9197 214.568 74.3097 216.278 74.8997 218.908C75.6897 222.468 76.3797 226.038 77.1597 229.598C77.2597 230.038 77.6497 230.418 78.0297 231.028C79.4297 230.938 80.8597 230.848 82.4597 230.748C83.3297 226.638 84.1297 222.768 84.9897 218.908C85.5697 216.258 86.9497 214.508 89.8897 214.028C92.4897 213.608 95.1397 212.998 97.5497 211.978C101.02 210.508 103.51 211.258 105.84 214.118C108.21 217.028 110.89 219.698 113.51 222.548C115.2 221.458 116.41 220.668 117.74 219.818C116.49 215.978 115.32 212.368 114.13 208.768C113.21 205.988 113.56 203.648 115.96 201.628C117.98 199.928 119.95 198.078 121.59 196.008C123.95 193.038 126.65 192.748 129.99 193.958C133.36 195.188 136.83 196.168 140.37 197.288C141.27 195.708 141.99 194.448 142.87 192.908C139.82 190.138 136.92 187.428 133.94 184.818C131.83 182.968 131.14 180.878 132.05 178.158C132.94 175.498 133.86 172.798 134.32 170.038C134.91 166.538 136.8 164.938 140.21 164.388C143.92 163.788 147.57 162.798 151.22 161.978V156.998C147.35 156.178 143.66 155.348 139.95 154.618C136.89 154.018 134.87 152.608 134.38 149.218C134 146.618 133.31 143.988 132.31 141.558C130.95 138.248 131.74 135.898 134.42 133.698C137.33 131.308 140.03 128.648 142.9 126.028C141.92 124.378 141.17 123.148 140.35 121.758C136.68 122.908 133.16 123.828 129.79 125.118C126.59 126.338 124.08 125.938 121.82 123.248C120.12 121.228 118.21 119.338 116.2 117.618C113.73 115.498 113.1 113.178 114.23 110.098C115.53 106.558 116.55 102.918 117.79 99.0079C116.18 98.1879 114.79 97.4779 113.24 96.6779C110.58 99.6579 108.1 102.318 105.76 105.108C103.72 107.548 101.46 108.478 98.3097 107.298C95.8397 106.368 93.2597 105.558 90.6597 105.188C86.8597 104.648 85.3497 102.438 84.7597 98.9279C84.1697 95.3679 83.2297 91.8779 82.3797 88.0279C80.5497 88.1179 78.9897 88.1879 77.4497 88.2679C76.5797 92.2579 75.6997 95.7979 75.0797 99.3779C74.5397 102.498 73.1797 104.498 69.8197 105.048C67.2197 105.478 64.5997 106.128 62.1597 107.108C58.8697 108.438 56.4597 107.698 54.2497 105.068C51.8197 102.168 49.1897 99.4479 46.4797 96.4679C44.8097 97.5679 43.4997 98.4379 42.1897 99.2879C43.4497 103.138 44.5397 106.618 45.7397 110.048C46.7797 113.038 46.3197 115.478 43.7697 117.598C41.8597 119.178 40.0197 120.918 38.4897 122.858C36.0197 125.978 33.2097 126.358 29.6797 124.978C26.4697 123.728 23.1197 122.838 19.5197 121.688C18.6797 123.228 17.9197 124.598 17.0897 126.118C20.1897 128.928 22.9597 131.548 25.8497 134.028C28.1297 135.988 28.9297 138.118 27.8297 141.068C26.8497 143.698 26.0097 146.428 25.5797 149.188C25.0497 152.558 23.0797 153.978 19.9997 154.568C16.2897 155.288 12.6097 156.168 8.8197 156.998V162.038C12.8197 162.878 16.5297 163.658 20.2397 164.428C23.0697 165.018 24.9997 166.348 25.5197 169.518C25.9697 172.278 26.7497 175.028 27.7197 177.658C28.8797 180.758 28.1997 183.048 25.6897 185.128C22.7697 187.548 20.0297 190.188 17.1097 192.828C17.9597 194.398 18.6497 195.678 19.5397 197.318L19.4897 197.348Z" fill="url(#paint0_linear_872_18514)"/>
<path d="M136.34 9.07755C137.46 9.51755 138.57 9.86755 139.59 10.3776C141.96 11.5576 144.27 12.8676 146.66 14.0276C149.37 15.3376 150.57 14.8876 151.54 12.1276C152.42 9.62755 153.16 7.08755 153.92 4.54755C154.85 1.42755 156.82 -0.122449 160.15 0.00755102C162.63 0.107551 165.13 0.067551 167.61 0.037551C170.5 0.00755102 172.28 1.41755 173.14 4.10755C173.95 6.62755 174.72 9.16755 175.58 11.6776C176.73 15.0376 177.81 15.4576 181.06 13.8176C183.43 12.6276 185.79 11.4076 188.09 10.1076C190.26 8.88755 192.22 9.05755 193.99 10.7776C196.35 13.0876 198.71 15.4076 200.98 17.8176C202.5 19.4276 202.7 21.2676 201.57 23.2876C200.12 25.8976 198.75 28.5476 197.46 31.2376C196.31 33.6176 196.8 34.9676 199.21 35.8376C201.85 36.7876 204.58 37.4976 207.28 38.3176C210.18 39.1976 211.67 41.0676 211.56 44.1976C211.47 46.8476 211.53 49.5076 211.52 52.1576C211.51 54.8076 210.24 56.5375 207.72 57.3475C205.04 58.2175 202.35 59.0476 199.7 59.9776C196.65 61.0376 196.19 62.1876 197.65 65.1476C198.9 67.6776 200.19 70.1776 201.57 72.6376C202.7 74.6576 202.42 76.4275 200.99 78.1275C200.24 79.0175 199.54 79.9475 198.77 80.8075C192.68 87.6275 191.72 87.7975 183.68 83.5275C179.107 81.0942 176.104 82.2842 174.67 87.0975C172 96.0175 171.94 96.0676 162.63 95.9576C161.47 95.9476 160.31 95.8976 159.15 95.8576C156.71 95.7776 155.1 94.5675 154.32 92.2675C153.52 89.9175 152.75 87.5575 151.98 85.1975C150.45 80.5175 149.83 80.2676 145.31 82.6076C143.25 83.6776 141.16 84.6976 139.14 85.8276C136.97 87.0476 135.01 86.8676 133.25 85.1376C130.89 82.8276 128.53 80.4975 126.26 78.0975C124.74 76.4775 124.54 74.6375 125.68 72.6275C127.06 70.1675 128.36 67.6676 129.6 65.1376C131.05 62.1776 130.59 61.0176 127.54 59.9676C125.04 59.0976 122.5 58.3276 119.97 57.5476C117.06 56.6476 115.6 54.7576 115.69 51.6576C115.76 49.0076 115.72 46.3476 115.72 43.6976C115.72 41.0376 116.98 39.3276 119.53 38.5376C122.22 37.7076 124.92 36.8976 127.57 35.9576C130.61 34.8776 131.05 33.7076 129.58 30.7576C128.33 28.2376 126.99 25.7576 125.68 23.2576C124.86 21.6976 124.4 20.0276 125.72 18.6176C128.42 15.7276 131.25 12.9376 134.09 10.1876C134.65 9.64755 135.54 9.46755 136.35 9.08755L136.34 9.07755ZM137.57 76.8775C140.01 75.6075 142.66 74.2776 145.26 72.8676C147.28 71.7676 149.24 71.3876 151.36 72.6376C152.35 73.2176 153.48 73.5575 154.58 73.9175C156.99 74.7075 158.41 76.3176 159.05 78.7876C159.62 81.0276 160.27 83.2676 161.17 85.3876C161.55 86.2676 162.56 87.1776 163.47 87.4576C165.15 87.9676 165.72 86.5076 166.16 85.2276C166.54 84.1376 166.93 83.0276 167.12 81.8976C167.96 76.9976 170.71 74.1276 175.54 72.6476C177.98 71.8976 179.94 71.6975 182.12 72.9475C183.99 74.0175 185.95 74.9076 187.84 75.9376C189.06 76.5976 190.19 77.1376 191.43 75.9076C192.61 74.7376 192.43 73.6475 191.68 72.3475C190.77 70.7775 190.01 69.1176 189.18 67.4976C185.91 61.0976 188.99 54.0476 195.95 51.9676C197.85 51.3976 199.8 50.9376 201.6 50.1476C202.31 49.8376 203.07 48.7475 203.08 48.0075C203.09 47.2675 202.36 46.2276 201.66 45.8176C200.55 45.1576 199.22 44.7275 197.93 44.5275C192.81 43.7375 189.79 40.9576 188.25 35.9276C187.5 33.4676 187.42 31.5176 188.64 29.3476C189.86 27.1876 191.04 24.9876 191.98 22.6976C192.26 22.0076 191.92 20.6776 191.38 20.1476C190.84 19.6176 189.53 19.3376 188.82 19.6076C186.82 20.3676 184.95 21.4776 183.03 22.4476C176.91 25.5576 169.77 22.5476 167.72 15.9676C167.18 14.2276 166.76 12.4576 166.18 10.7376C165.76 9.48755 165.3 8.29755 163.5 8.33755C161.67 8.37755 161.43 9.74755 160.95 10.9176C160.51 11.9876 160.05 13.0976 159.93 14.2276C159.4 19.1876 156.38 21.6076 151.9 23.1576C149.33 24.0476 147.22 24.2476 144.86 22.8576C142.45 21.4376 139.89 20.2576 137.5 19.0276C134.61 21.3776 134.6 21.3876 135.68 23.7876C136.09 24.6976 136.45 25.6476 137.02 26.4476C139.91 30.4576 140.25 34.4476 137.74 38.8876C136.52 41.0276 135.36 42.7276 132.86 43.3776C130.46 43.9976 128.09 44.7575 125.8 45.6875C125.05 45.9875 124.07 47.0676 124.14 47.6976C124.24 48.6076 124.99 49.8676 125.8 50.2176C128.06 51.1976 130.47 51.8576 132.86 52.5176C135.31 53.1876 136.89 54.6576 137.67 57.0676C138.02 58.1676 138.39 59.2876 138.95 60.2876C140.05 62.2276 139.92 64.0376 138.87 65.9376C137.75 67.9676 136.84 70.1175 135.65 72.0975C134.26 74.3975 134.94 75.7876 137.56 76.8976L137.57 76.8775Z" fill="#A685FA"/>
<path d="M136.34 9.07755C137.46 9.51755 138.57 9.86755 139.59 10.3776C141.96 11.5576 144.27 12.8676 146.66 14.0276C149.37 15.3376 150.57 14.8876 151.54 12.1276C152.42 9.62755 153.16 7.08755 153.92 4.54755C154.85 1.42755 156.82 -0.122449 160.15 0.00755102C162.63 0.107551 165.13 0.067551 167.61 0.037551C170.5 0.00755102 172.28 1.41755 173.14 4.10755C173.95 6.62755 174.72 9.16755 175.58 11.6776C176.73 15.0376 177.81 15.4576 181.06 13.8176C183.43 12.6276 185.79 11.4076 188.09 10.1076C190.26 8.88755 192.22 9.05755 193.99 10.7776C196.35 13.0876 198.71 15.4076 200.98 17.8176C202.5 19.4276 202.7 21.2676 201.57 23.2876C200.12 25.8976 198.75 28.5476 197.46 31.2376C196.31 33.6176 196.8 34.9676 199.21 35.8376C201.85 36.7876 204.58 37.4976 207.28 38.3176C210.18 39.1976 211.67 41.0676 211.56 44.1976C211.47 46.8476 211.53 49.5076 211.52 52.1576C211.51 54.8076 210.24 56.5375 207.72 57.3475C205.04 58.2175 202.35 59.0476 199.7 59.9776C196.65 61.0376 196.19 62.1876 197.65 65.1476C198.9 67.6776 200.19 70.1776 201.57 72.6376C202.7 74.6576 202.42 76.4275 200.99 78.1275C200.24 79.0175 199.54 79.9475 198.77 80.8075C192.68 87.6275 191.72 87.7975 183.68 83.5275C179.107 81.0942 176.104 82.2842 174.67 87.0975C172 96.0175 171.94 96.0676 162.63 95.9576C161.47 95.9476 160.31 95.8976 159.15 95.8576C156.71 95.7776 155.1 94.5675 154.32 92.2675C153.52 89.9175 152.75 87.5575 151.98 85.1975C150.45 80.5175 149.83 80.2676 145.31 82.6076C143.25 83.6776 141.16 84.6976 139.14 85.8276C136.97 87.0476 135.01 86.8676 133.25 85.1376C130.89 82.8276 128.53 80.4975 126.26 78.0975C124.74 76.4775 124.54 74.6375 125.68 72.6275C127.06 70.1675 128.36 67.6676 129.6 65.1376C131.05 62.1776 130.59 61.0176 127.54 59.9676C125.04 59.0976 122.5 58.3276 119.97 57.5476C117.06 56.6476 115.6 54.7576 115.69 51.6576C115.76 49.0076 115.72 46.3476 115.72 43.6976C115.72 41.0376 116.98 39.3276 119.53 38.5376C122.22 37.7076 124.92 36.8976 127.57 35.9576C130.61 34.8776 131.05 33.7076 129.58 30.7576C128.33 28.2376 126.99 25.7576 125.68 23.2576C124.86 21.6976 124.4 20.0276 125.72 18.6176C128.42 15.7276 131.25 12.9376 134.09 10.1876C134.65 9.64755 135.54 9.46755 136.35 9.08755L136.34 9.07755ZM137.57 76.8775C140.01 75.6075 142.66 74.2776 145.26 72.8676C147.28 71.7676 149.24 71.3876 151.36 72.6376C152.35 73.2176 153.48 73.5575 154.58 73.9175C156.99 74.7075 158.41 76.3176 159.05 78.7876C159.62 81.0276 160.27 83.2676 161.17 85.3876C161.55 86.2676 162.56 87.1776 163.47 87.4576C165.15 87.9676 165.72 86.5076 166.16 85.2276C166.54 84.1376 166.93 83.0276 167.12 81.8976C167.96 76.9976 170.71 74.1276 175.54 72.6476C177.98 71.8976 179.94 71.6975 182.12 72.9475C183.99 74.0175 185.95 74.9076 187.84 75.9376C189.06 76.5976 190.19 77.1376 191.43 75.9076C192.61 74.7376 192.43 73.6475 191.68 72.3475C190.77 70.7775 190.01 69.1176 189.18 67.4976C185.91 61.0976 188.99 54.0476 195.95 51.9676C197.85 51.3976 199.8 50.9376 201.6 50.1476C202.31 49.8376 203.07 48.7475 203.08 48.0075C203.09 47.2675 202.36 46.2276 201.66 45.8176C200.55 45.1576 199.22 44.7275 197.93 44.5275C192.81 43.7375 189.79 40.9576 188.25 35.9276C187.5 33.4676 187.42 31.5176 188.64 29.3476C189.86 27.1876 191.04 24.9876 191.98 22.6976C192.26 22.0076 191.92 20.6776 191.38 20.1476C190.84 19.6176 189.53 19.3376 188.82 19.6076C186.82 20.3676 184.95 21.4776 183.03 22.4476C176.91 25.5576 169.77 22.5476 167.72 15.9676C167.18 14.2276 166.76 12.4576 166.18 10.7376C165.76 9.48755 165.3 8.29755 163.5 8.33755C161.67 8.37755 161.43 9.74755 160.95 10.9176C160.51 11.9876 160.05 13.0976 159.93 14.2276C159.4 19.1876 156.38 21.6076 151.9 23.1576C149.33 24.0476 147.22 24.2476 144.86 22.8576C142.45 21.4376 139.89 20.2576 137.5 19.0276C134.61 21.3776 134.6 21.3876 135.68 23.7876C136.09 24.6976 136.45 25.6476 137.02 26.4476C139.91 30.4576 140.25 34.4476 137.74 38.8876C136.52 41.0276 135.36 42.7276 132.86 43.3776C130.46 43.9976 128.09 44.7575 125.8 45.6875C125.05 45.9875 124.07 47.0676 124.14 47.6976C124.24 48.6076 124.99 49.8676 125.8 50.2176C128.06 51.1976 130.47 51.8576 132.86 52.5176C135.31 53.1876 136.89 54.6576 137.67 57.0676C138.02 58.1676 138.39 59.2876 138.95 60.2876C140.05 62.2276 139.92 64.0376 138.87 65.9376C137.75 67.9676 136.84 70.1175 135.65 72.0975C134.26 74.3975 134.94 75.7876 137.56 76.8976L137.57 76.8775Z" fill="url(#paint1_linear_872_18514)"/>
<path d="M232.13 161.608C231.75 162.518 231.51 163.518 230.95 164.298C230.09 165.508 229.06 166.598 228.02 167.678C223.11 172.788 222.54 172.888 216.09 169.998C212.12 168.218 210.96 168.678 209.36 172.708C208.99 173.628 208.65 174.558 208.34 175.508C207.46 178.208 205.64 179.578 202.79 179.578C201.63 179.578 200.47 179.668 199.31 179.648C192.29 179.558 192.22 179.498 189.66 172.818C188.07 168.668 186.96 168.178 183.05 169.948C181.99 170.428 180.96 170.948 179.91 171.448C177.72 172.508 175.74 172.148 173.96 170.538C172.98 169.648 171.97 168.788 171.03 167.848C166.28 163.108 166.19 162.498 169.02 156.218C170.89 152.068 170.39 150.938 165.98 149.278C164.9 148.868 163.79 148.508 162.74 148.038C158.24 146.038 159.68 141.908 159.45 138.458C159.26 135.448 159.35 132.348 162.93 130.998C164.17 130.528 165.42 130.098 166.65 129.598C170.08 128.218 170.7 126.828 169.37 123.568C169.31 123.418 169.22 123.268 169.17 123.118C168.31 120.718 165.64 118.318 167.58 115.798C169.95 112.708 172.94 109.998 176.03 107.598C176.9 106.918 179.19 107.598 180.61 108.188C187.57 111.058 187.61 111.148 190.41 104.088C191.59 101.108 193.44 99.4385 196.72 99.5485C197.55 99.5785 198.38 99.5185 199.21 99.5285C206.66 99.5985 206.68 99.6085 209.31 106.428C210.88 110.498 212 110.958 215.99 109.188C222.64 106.248 222.84 106.278 227.92 111.418C228.62 112.128 229.25 112.898 229.96 113.588C232.14 115.718 232.56 118.068 230.99 120.758C230.41 121.758 229.93 122.828 229.48 123.888C228.32 126.628 228.93 128.208 231.56 129.428C231.71 129.498 231.88 129.508 232.04 129.568C234.56 130.668 238.23 130.688 238.89 133.818C239.63 137.308 239.41 141.058 239.17 144.668C239.03 146.858 236.99 147.778 235.07 148.558C230.377 150.472 229.044 153.858 231.07 158.718C231.45 159.628 231.76 160.568 232.13 161.588V161.608ZM167.69 138.868C167.69 139.408 167.69 139.948 167.69 140.488C169.31 141.128 171.01 141.628 172.54 142.448C173.95 143.198 175.8 144.008 176.39 145.288C178.35 149.528 181.16 153.878 177.5 158.658C177.2 159.038 176.98 159.528 176.87 159.998C176.52 161.528 177.61 162.598 179.15 162.188C179.94 161.978 180.67 161.528 181.42 161.188C187.82 158.298 194.74 161.278 197.26 167.968C197.75 169.258 197.57 171.118 200.02 171.148C200.45 170.458 201.21 169.708 201.4 168.848C202.36 164.488 205.15 162.358 209.26 160.858C212.16 159.808 214.54 159.288 217.19 160.948C217.89 161.388 218.66 161.798 219.45 161.938C220.16 162.058 221.24 162.048 221.61 161.628C222 161.188 221.85 160.158 221.74 159.418C221.64 158.778 221.26 158.188 221 157.578C218.3 151.398 221.25 144.428 227.49 141.998C228.88 141.458 231.04 141.688 231.07 138.638C229.65 138.068 227.96 137.538 226.43 136.718C225.02 135.968 223.15 135.178 222.58 133.918C220.67 129.688 217.7 125.348 221.45 120.558C221.75 120.178 221.97 119.688 222.08 119.218C222.43 117.688 221.33 116.578 219.81 117.038C218.71 117.368 217.68 117.948 216.67 118.518C214.49 119.748 212.36 120.018 210.11 118.648C209.28 118.138 208.3 117.828 207.35 117.558C204.56 116.748 202.94 115.008 202.07 112.178C201.6 110.658 201.76 108.318 198.64 107.878C198.08 109.218 197.44 110.648 196.87 112.098C194.71 117.658 187.39 120.648 181.87 118.318C180.47 117.728 178.97 115.948 177.38 117.478C175.74 119.058 177.56 120.598 178.2 121.918C179.44 124.488 179.96 126.848 178.28 129.398C177.75 130.208 177.44 131.198 177.16 132.148C176.44 134.578 174.95 136.088 172.48 136.818C170.82 137.308 169.28 138.178 167.68 138.878L167.69 138.868Z" fill="#A685FA"/>
<path d="M232.13 161.608C231.75 162.518 231.51 163.518 230.95 164.298C230.09 165.508 229.06 166.598 228.02 167.678C223.11 172.788 222.54 172.888 216.09 169.998C212.12 168.218 210.96 168.678 209.36 172.708C208.99 173.628 208.65 174.558 208.34 175.508C207.46 178.208 205.64 179.578 202.79 179.578C201.63 179.578 200.47 179.668 199.31 179.648C192.29 179.558 192.22 179.498 189.66 172.818C188.07 168.668 186.96 168.178 183.05 169.948C181.99 170.428 180.96 170.948 179.91 171.448C177.72 172.508 175.74 172.148 173.96 170.538C172.98 169.648 171.97 168.788 171.03 167.848C166.28 163.108 166.19 162.498 169.02 156.218C170.89 152.068 170.39 150.938 165.98 149.278C164.9 148.868 163.79 148.508 162.74 148.038C158.24 146.038 159.68 141.908 159.45 138.458C159.26 135.448 159.35 132.348 162.93 130.998C164.17 130.528 165.42 130.098 166.65 129.598C170.08 128.218 170.7 126.828 169.37 123.568C169.31 123.418 169.22 123.268 169.17 123.118C168.31 120.718 165.64 118.318 167.58 115.798C169.95 112.708 172.94 109.998 176.03 107.598C176.9 106.918 179.19 107.598 180.61 108.188C187.57 111.058 187.61 111.148 190.41 104.088C191.59 101.108 193.44 99.4385 196.72 99.5485C197.55 99.5785 198.38 99.5185 199.21 99.5285C206.66 99.5985 206.68 99.6085 209.31 106.428C210.88 110.498 212 110.958 215.99 109.188C222.64 106.248 222.84 106.278 227.92 111.418C228.62 112.128 229.25 112.898 229.96 113.588C232.14 115.718 232.56 118.068 230.99 120.758C230.41 121.758 229.93 122.828 229.48 123.888C228.32 126.628 228.93 128.208 231.56 129.428C231.71 129.498 231.88 129.508 232.04 129.568C234.56 130.668 238.23 130.688 238.89 133.818C239.63 137.308 239.41 141.058 239.17 144.668C239.03 146.858 236.99 147.778 235.07 148.558C230.377 150.472 229.044 153.858 231.07 158.718C231.45 159.628 231.76 160.568 232.13 161.588V161.608ZM167.69 138.868C167.69 139.408 167.69 139.948 167.69 140.488C169.31 141.128 171.01 141.628 172.54 142.448C173.95 143.198 175.8 144.008 176.39 145.288C178.35 149.528 181.16 153.878 177.5 158.658C177.2 159.038 176.98 159.528 176.87 159.998C176.52 161.528 177.61 162.598 179.15 162.188C179.94 161.978 180.67 161.528 181.42 161.188C187.82 158.298 194.74 161.278 197.26 167.968C197.75 169.258 197.57 171.118 200.02 171.148C200.45 170.458 201.21 169.708 201.4 168.848C202.36 164.488 205.15 162.358 209.26 160.858C212.16 159.808 214.54 159.288 217.19 160.948C217.89 161.388 218.66 161.798 219.45 161.938C220.16 162.058 221.24 162.048 221.61 161.628C222 161.188 221.85 160.158 221.74 159.418C221.64 158.778 221.26 158.188 221 157.578C218.3 151.398 221.25 144.428 227.49 141.998C228.88 141.458 231.04 141.688 231.07 138.638C229.65 138.068 227.96 137.538 226.43 136.718C225.02 135.968 223.15 135.178 222.58 133.918C220.67 129.688 217.7 125.348 221.45 120.558C221.75 120.178 221.97 119.688 222.08 119.218C222.43 117.688 221.33 116.578 219.81 117.038C218.71 117.368 217.68 117.948 216.67 118.518C214.49 119.748 212.36 120.018 210.11 118.648C209.28 118.138 208.3 117.828 207.35 117.558C204.56 116.748 202.94 115.008 202.07 112.178C201.6 110.658 201.76 108.318 198.64 107.878C198.08 109.218 197.44 110.648 196.87 112.098C194.71 117.658 187.39 120.648 181.87 118.318C180.47 117.728 178.97 115.948 177.38 117.478C175.74 119.058 177.56 120.598 178.2 121.918C179.44 124.488 179.96 126.848 178.28 129.398C177.75 130.208 177.44 131.198 177.16 132.148C176.44 134.578 174.95 136.088 172.48 136.818C170.82 137.308 169.28 138.178 167.68 138.878L167.69 138.868Z" fill="url(#paint2_linear_872_18514)"/>
<path d="M86.53 75.2377C84.59 73.1077 82.93 71.2877 81.03 69.1977C82.15 67.8277 83.26 66.4777 84.37 65.1177C77.59 62.3877 57.1 65.6577 41.82 72.1677C28.04 78.0377 16.46 87.0277 6.45 98.6177C4.22 96.7377 2.25 95.0677 0 93.1677C10.63 80.4077 23.24 70.9277 38.01 64.3977C52.73 57.8877 68.21 54.8877 85.26 55.8377C83.46 53.7877 82.3 52.4677 81.01 50.9977C83.04 49.2177 84.98 47.5077 87.35 45.4277C90.9 48.9477 95.08 52.8877 99 57.0677C100.77 58.9577 100.52 61.0577 98.43 63.2777C94.79 67.1277 90.97 70.7977 86.54 75.2277L86.53 75.2377Z" fill="#A685FA"/>
<path d="M86.53 75.2377C84.59 73.1077 82.93 71.2877 81.03 69.1977C82.15 67.8277 83.26 66.4777 84.37 65.1177C77.59 62.3877 57.1 65.6577 41.82 72.1677C28.04 78.0377 16.46 87.0277 6.45 98.6177C4.22 96.7377 2.25 95.0677 0 93.1677C10.63 80.4077 23.24 70.9277 38.01 64.3977C52.73 57.8877 68.21 54.8877 85.26 55.8377C83.46 53.7877 82.3 52.4677 81.01 50.9977C83.04 49.2177 84.98 47.5077 87.35 45.4277C90.9 48.9477 95.08 52.8877 99 57.0677C100.77 58.9577 100.52 61.0577 98.43 63.2777C94.79 67.1277 90.97 70.7977 86.54 75.2277L86.53 75.2377Z" fill="url(#paint3_linear_872_18514)"/>
<path d="M217.69 24.0371C216.81 27.3771 216.11 30.0471 215.32 33.0371C212.63 32.5371 210.27 32.0971 207.27 31.5271C208 27.6271 208.66 23.9771 209.37 20.3271C209.93 17.4071 210.46 14.4771 211.16 11.5871C211.73 9.23709 213.26 7.94709 215.81 7.95709C218.15 7.96709 233.53 11.3571 236.28 12.6471C235.84 14.9271 235.38 17.2871 234.83 20.1571C231.72 19.6671 228.88 19.2171 225.44 18.6771C228.29 26.8771 231.24 34.6871 231.5 43.1571C231.76 51.6571 231.29 60.0371 228.59 68.1771C225.92 76.2071 222.47 83.8071 216.35 90.4771C214.13 88.6871 212.14 87.0871 210.18 85.4971C226.35 63.3671 225.18 39.4271 217.69 24.0371Z" fill="#A685FA"/>
<path d="M217.69 24.0371C216.81 27.3771 216.11 30.0471 215.32 33.0371C212.63 32.5371 210.27 32.0971 207.27 31.5271C208 27.6271 208.66 23.9771 209.37 20.3271C209.93 17.4071 210.46 14.4771 211.16 11.5871C211.73 9.23709 213.26 7.94709 215.81 7.95709C218.15 7.96709 233.53 11.3571 236.28 12.6471C235.84 14.9271 235.38 17.2871 234.83 20.1571C231.72 19.6671 228.88 19.2171 225.44 18.6771C228.29 26.8771 231.24 34.6871 231.5 43.1571C231.76 51.6571 231.29 60.0371 228.59 68.1771C225.92 76.2071 222.47 83.8071 216.35 90.4771C214.13 88.6871 212.14 87.0871 210.18 85.4971C226.35 63.3671 225.18 39.4271 217.69 24.0371Z" fill="url(#paint4_linear_872_18514)"/>
<path fill-rule="evenodd" clip-rule="evenodd" d="M93.9267 160.093C92.494 159.251 90.6519 158.281 88.9633 158.97C87.684 159.506 86.8397 161.522 86.021 162.543C85.5861 163.079 85.0744 163.155 84.4348 162.9C79.5992 160.986 75.8894 157.745 73.2286 153.305C72.7681 152.616 72.8448 152.08 73.4077 151.442C74.2264 150.498 75.2242 149.426 75.4545 148.15C75.6848 146.874 75.0707 145.368 74.5334 144.246C73.8682 142.791 73.1007 140.724 71.6424 139.907C70.312 139.142 68.5466 139.575 67.3441 140.545C65.2718 142.229 64.2739 144.858 64.3251 147.435C64.3251 148.176 64.4275 148.916 64.6065 149.63C65.0159 151.34 65.809 152.948 66.7045 154.479C67.3697 155.627 68.1117 156.75 68.9048 157.822C71.4889 161.318 74.7125 164.38 78.4479 166.652C80.3156 167.8 82.3112 168.795 84.3836 169.484C86.7118 170.25 88.7842 171.041 91.3171 170.582C93.9523 170.071 96.562 168.464 97.5854 165.912C97.8924 165.172 98.0459 164.329 97.8668 163.538C97.5086 161.905 95.2827 160.935 93.9523 160.144L93.9267 160.093Z" fill="#A685FA"/>
<path fill-rule="evenodd" clip-rule="evenodd" d="M93.9267 160.093C92.494 159.251 90.6519 158.281 88.9633 158.97C87.684 159.506 86.8397 161.522 86.021 162.543C85.5861 163.079 85.0744 163.155 84.4348 162.9C79.5992 160.986 75.8894 157.745 73.2286 153.305C72.7681 152.616 72.8448 152.08 73.4077 151.442C74.2264 150.498 75.2242 149.426 75.4545 148.15C75.6848 146.874 75.0707 145.368 74.5334 144.246C73.8682 142.791 73.1007 140.724 71.6424 139.907C70.312 139.142 68.5466 139.575 67.3441 140.545C65.2718 142.229 64.2739 144.858 64.3251 147.435C64.3251 148.176 64.4275 148.916 64.6065 149.63C65.0159 151.34 65.809 152.948 66.7045 154.479C67.3697 155.627 68.1117 156.75 68.9048 157.822C71.4889 161.318 74.7125 164.38 78.4479 166.652C80.3156 167.8 82.3112 168.795 84.3836 169.484C86.7118 170.25 88.7842 171.041 91.3171 170.582C93.9523 170.071 96.562 168.464 97.5854 165.912C97.8924 165.172 98.0459 164.329 97.8668 163.538C97.5086 161.905 95.2827 160.935 93.9523 160.144L93.9267 160.093Z" fill="url(#paint5_linear_872_18514)"/>
<path fill-rule="evenodd" clip-rule="evenodd" d="M203.679 143.031C203.086 142.682 202.323 142.28 201.623 142.566C201.093 142.788 200.743 143.623 200.404 144.046C200.224 144.268 200.012 144.3 199.747 144.194C197.744 143.401 196.207 142.058 195.104 140.219C194.914 139.933 194.945 139.711 195.179 139.447C195.518 139.056 195.931 138.612 196.027 138.083C196.122 137.554 195.868 136.931 195.645 136.465C195.369 135.863 195.051 135.006 194.447 134.668C193.896 134.351 193.165 134.531 192.667 134.932C191.808 135.63 191.395 136.719 191.416 137.787C191.416 138.094 191.458 138.4 191.532 138.696C191.702 139.404 192.031 140.071 192.402 140.705C192.677 141.181 192.985 141.646 193.313 142.09C194.384 143.538 195.719 144.807 197.267 145.748C198.04 146.224 198.867 146.636 199.726 146.921C200.69 147.239 201.549 147.566 202.598 147.376C203.69 147.165 204.771 146.499 205.195 145.441C205.322 145.135 205.386 144.786 205.312 144.458C205.163 143.781 204.241 143.38 203.69 143.052L203.679 143.031Z" fill="#A685FA"/>
<path fill-rule="evenodd" clip-rule="evenodd" d="M203.679 143.031C203.086 142.682 202.323 142.28 201.623 142.566C201.093 142.788 200.743 143.623 200.404 144.046C200.224 144.268 200.012 144.3 199.747 144.194C197.744 143.401 196.207 142.058 195.104 140.219C194.914 139.933 194.945 139.711 195.179 139.447C195.518 139.056 195.931 138.612 196.027 138.083C196.122 137.554 195.868 136.931 195.645 136.465C195.369 135.863 195.051 135.006 194.447 134.668C193.896 134.351 193.165 134.531 192.667 134.932C191.808 135.63 191.395 136.719 191.416 137.787C191.416 138.094 191.458 138.4 191.532 138.696C191.702 139.404 192.031 140.071 192.402 140.705C192.677 141.181 192.985 141.646 193.313 142.09C194.384 143.538 195.719 144.807 197.267 145.748C198.04 146.224 198.867 146.636 199.726 146.921C200.69 147.239 201.549 147.566 202.598 147.376C203.69 147.165 204.771 146.499 205.195 145.441C205.322 145.135 205.386 144.786 205.312 144.458C205.163 143.781 204.241 143.38 203.69 143.052L203.679 143.031Z" fill="url(#paint6_linear_872_18514)"/>
<path d="M45.6992 190.717L50.7394 171.985C47.8739 166.856 46.39 161.114 46.39 155.296C46.39 136.233 61.92 120.717 81.0318 120.717C100.144 120.717 115.699 136.233 115.699 155.296C115.699 174.359 100.144 189.875 81.0318 189.875C75.3008 189.875 69.621 188.42 64.5552 185.689L45.6992 190.742L45.6992 190.717ZM65.5018 178.672L66.6788 179.386C71.0282 181.989 75.9916 183.342 81.0318 183.342C96.5362 183.342 109.15 170.761 109.15 155.296C109.15 139.831 96.5362 127.25 81.0318 127.25C65.5274 127.25 52.9397 139.831 52.9397 155.296C52.9397 160.4 54.3725 165.427 57.0589 169.842L57.7752 171.041L54.9609 181.504L65.5018 178.697V178.672Z" fill="#A685FA"/>
<path d="M45.6992 190.717L50.7394 171.985C47.8739 166.856 46.39 161.114 46.39 155.296C46.39 136.233 61.92 120.717 81.0318 120.717C100.144 120.717 115.699 136.233 115.699 155.296C115.699 174.359 100.144 189.875 81.0318 189.875C75.3008 189.875 69.621 188.42 64.5552 185.689L45.6992 190.742L45.6992 190.717ZM65.5018 178.672L66.6788 179.386C71.0282 181.989 75.9916 183.342 81.0318 183.342C96.5362 183.342 109.15 170.761 109.15 155.296C109.15 139.831 96.5362 127.25 81.0318 127.25C65.5274 127.25 52.9397 139.831 52.9397 155.296C52.9397 160.4 54.3725 165.427 57.0589 169.842L57.7752 171.041L54.9609 181.504L65.5018 178.697V178.672Z" fill="url(#paint7_linear_872_18514)"/>
<path d="M183.699 155.717L185.787 147.957C184.6 145.832 183.985 143.453 183.985 141.042C183.985 133.145 190.419 126.717 198.337 126.717C206.255 126.717 212.699 133.145 212.699 141.042C212.699 148.94 206.255 155.368 198.337 155.368C195.963 155.368 193.61 154.765 191.511 153.634L183.699 155.727V155.717ZM191.903 150.727L192.391 151.023C194.193 152.101 196.249 152.661 198.337 152.661C204.76 152.661 209.986 147.449 209.986 141.042C209.986 134.635 204.76 129.423 198.337 129.423C191.914 129.423 186.699 134.635 186.699 141.042C186.699 143.157 187.292 145.24 188.405 147.069L188.702 147.566L187.536 151.9L191.903 150.737V150.727Z" fill="#A685FA"/>
<path d="M183.699 155.717L185.787 147.957C184.6 145.832 183.985 143.453 183.985 141.042C183.985 133.145 190.419 126.717 198.337 126.717C206.255 126.717 212.699 133.145 212.699 141.042C212.699 148.94 206.255 155.368 198.337 155.368C195.963 155.368 193.61 154.765 191.511 153.634L183.699 155.727V155.717ZM191.903 150.727L192.391 151.023C194.193 152.101 196.249 152.661 198.337 152.661C204.76 152.661 209.986 147.449 209.986 141.042C209.986 134.635 204.76 129.423 198.337 129.423C191.914 129.423 186.699 134.635 186.699 141.042C186.699 143.157 187.292 145.24 188.405 147.069L188.702 147.566L187.536 151.9L191.903 150.737V150.727Z" fill="url(#paint8_linear_872_18514)"/>
<path d="M144.699 66.7168L147.507 56.2808C145.911 53.423 145.084 50.2239 145.084 46.9822C145.084 36.3613 153.736 27.7168 164.385 27.7168C175.033 27.7168 183.699 36.3613 183.699 46.9822C183.699 57.6031 175.033 66.2476 164.385 66.2476C161.192 66.2476 158.027 65.4372 155.205 63.9158L144.699 66.731V66.7168ZM155.732 60.0059L156.388 60.404C158.811 61.8542 161.576 62.6078 164.385 62.6078C173.023 62.6078 180.05 55.5983 180.05 46.9822C180.05 38.3661 173.023 31.3566 164.385 31.3566C155.746 31.3566 148.733 38.3661 148.733 46.9822C148.733 49.8258 149.531 52.6267 151.028 55.0865L151.427 55.7547L149.859 61.5841L155.732 60.0201V60.0059Z" fill="#A685FA"/>
<path d="M144.699 66.7168L147.507 56.2808C145.911 53.423 145.084 50.2239 145.084 46.9822C145.084 36.3613 153.736 27.7168 164.385 27.7168C175.033 27.7168 183.699 36.3613 183.699 46.9822C183.699 57.6031 175.033 66.2476 164.385 66.2476C161.192 66.2476 158.027 65.4372 155.205 63.9158L144.699 66.731V66.7168ZM155.732 60.0059L156.388 60.404C158.811 61.8542 161.576 62.6078 164.385 62.6078C173.023 62.6078 180.05 55.5983 180.05 46.9822C180.05 38.3661 173.023 31.3566 164.385 31.3566C155.746 31.3566 148.733 38.3661 148.733 46.9822C148.733 49.8258 149.531 52.6267 151.028 55.0865L151.427 55.7547L149.859 61.5841L155.732 60.0201V60.0059Z" fill="url(#paint9_linear_872_18514)"/>
<path fill-rule="evenodd" clip-rule="evenodd" d="M171.569 49.6541C170.77 49.1849 169.744 48.6446 168.803 49.0285C168.09 49.327 167.62 50.4503 167.164 51.019C166.922 51.3176 166.637 51.3602 166.28 51.218C163.586 50.1517 161.519 48.346 160.037 45.8721C159.78 45.4882 159.823 45.1896 160.137 44.8342C160.593 44.3081 161.149 43.7109 161.277 43C161.405 42.2891 161.063 41.4503 160.764 40.8247C160.393 40.0142 159.965 38.8626 159.153 38.4076C158.412 37.9811 157.428 38.2228 156.758 38.7631C155.604 39.7015 155.048 41.1659 155.076 42.6019C155.076 43.0142 155.133 43.4266 155.233 43.8247C155.461 44.7773 155.903 45.673 156.402 46.5261C156.773 47.1659 157.186 47.7915 157.628 48.3887C159.067 50.3365 160.864 52.0427 162.945 53.3081C163.985 53.9479 165.097 54.5024 166.252 54.8863C167.549 55.3128 168.703 55.7536 170.115 55.4977C171.583 55.2133 173.037 54.3176 173.607 52.8958C173.778 52.4834 173.864 52.0142 173.764 51.5735C173.564 50.6635 172.324 50.1233 171.583 49.6825L171.569 49.6541Z" fill="#A685FA"/>
<path fill-rule="evenodd" clip-rule="evenodd" d="M171.569 49.6541C170.77 49.1849 169.744 48.6446 168.803 49.0285C168.09 49.327 167.62 50.4503 167.164 51.019C166.922 51.3176 166.637 51.3602 166.28 51.218C163.586 50.1517 161.519 48.346 160.037 45.8721C159.78 45.4882 159.823 45.1896 160.137 44.8342C160.593 44.3081 161.149 43.7109 161.277 43C161.405 42.2891 161.063 41.4503 160.764 40.8247C160.393 40.0142 159.965 38.8626 159.153 38.4076C158.412 37.9811 157.428 38.2228 156.758 38.7631C155.604 39.7015 155.048 41.1659 155.076 42.6019C155.076 43.0142 155.133 43.4266 155.233 43.8247C155.461 44.7773 155.903 45.673 156.402 46.5261C156.773 47.1659 157.186 47.7915 157.628 48.3887C159.067 50.3365 160.864 52.0427 162.945 53.3081C163.985 53.9479 165.097 54.5024 166.252 54.8863C167.549 55.3128 168.703 55.7536 170.115 55.4977C171.583 55.2133 173.037 54.3176 173.607 52.8958C173.778 52.4834 173.864 52.0142 173.764 51.5735C173.564 50.6635 172.324 50.1233 171.583 49.6825L171.569 49.6541Z" fill="url(#paint10_linear_872_18514)"/>
<defs>
<linearGradient id="paint0_linear_872_18514" x1="2.27966" y1="84.5849" x2="184.761" y2="135.91" gradientUnits="userSpaceOnUse">
<stop offset="0.119792" stop-color="#648FF2"/>
<stop offset="1" stop-color="#31468F"/>
</linearGradient>
<linearGradient id="paint1_linear_872_18514" x1="116.99" y1="2.97152" x2="226.538" y2="33.7568" gradientUnits="userSpaceOnUse">
<stop offset="0.119792" stop-color="#648FF2"/>
<stop offset="1" stop-color="#31468F"/>
</linearGradient>
<linearGradient id="paint2_linear_872_18514" x1="160.481" y1="102.008" x2="251.898" y2="127.686" gradientUnits="userSpaceOnUse">
<stop offset="0.119792" stop-color="#648FF2"/>
<stop offset="1" stop-color="#31468F"/>
</linearGradient>
<linearGradient id="paint3_linear_872_18514" x1="1.36174" y1="47.0745" x2="97.7927" y2="98.1652" gradientUnits="userSpaceOnUse">
<stop offset="0.119792" stop-color="#648FF2"/>
<stop offset="1" stop-color="#31468F"/>
</linearGradient>
<linearGradient id="paint4_linear_872_18514" x1="207.664" y1="10.5119" x2="243.081" y2="14.0144" gradientUnits="userSpaceOnUse">
<stop offset="0.119792" stop-color="#648FF2"/>
<stop offset="1" stop-color="#31468F"/>
</linearGradient>
<linearGradient id="paint5_linear_872_18514" x1="64.7802" y1="140.482" x2="102.739" y2="151.987" gradientUnits="userSpaceOnUse">
<stop offset="0.119792" stop-color="#648FF2"/>
<stop offset="1" stop-color="#31468F"/>
</linearGradient>
<linearGradient id="paint6_linear_872_18514" x1="191.604" y1="134.906" x2="207.33" y2="139.673" gradientUnits="userSpaceOnUse">
<stop offset="0.119792" stop-color="#648FF2"/>
<stop offset="1" stop-color="#31468F"/>
</linearGradient>
<linearGradient id="paint7_linear_872_18514" x1="46.6507" y1="122.885" x2="126.622" y2="145.373" gradientUnits="userSpaceOnUse">
<stop offset="0.119792" stop-color="#648FF2"/>
<stop offset="1" stop-color="#31468F"/>
</linearGradient>
<linearGradient id="paint8_linear_872_18514" x1="184.093" y1="127.615" x2="217.225" y2="136.932" gradientUnits="userSpaceOnUse">
<stop offset="0.119792" stop-color="#648FF2"/>
<stop offset="1" stop-color="#31468F"/>
</linearGradient>
<linearGradient id="paint9_linear_872_18514" x1="145.229" y1="28.9247" x2="189.785" y2="41.4539" gradientUnits="userSpaceOnUse">
<stop offset="0.119792" stop-color="#648FF2"/>
<stop offset="1" stop-color="#31468F"/>
</linearGradient>
<linearGradient id="paint10_linear_872_18514" x1="155.33" y1="38.7277" x2="176.478" y2="45.1379" gradientUnits="userSpaceOnUse">
<stop offset="0.119792" stop-color="#648FF2"/>
<stop offset="1" stop-color="#31468F"/>
</linearGradient>
</defs>
</svg>
